<svg xmlns="http://www.w3.org/2000/svg" xmlns:xlink="http://www.w3.org/1999/xlink" width="475" zoomAndPan="magnify" viewBox="0 0 356.25 286.5" height="382" preserveAspectRatio="xMidYMid meet" version="1.0"><defs><clipPath id="947eeb22f0"><path d="M 85.222656 1.546875 L 270.027344 1.546875 L 270.027344 285.949219 L 85.222656 285.949219 Z M 85.222656 1.546875 " clip-rule="nonzero"/></clipPath></defs><g clip-path="url(#947eeb22f0)"><path fill="#081333" d="M 270.117188 168.84375 L 270.117188 287.484375 L 224.820312 287.484375 L 224.820312 154.835938 L 229.464844 152.347656 Z M 179.527344 1.546875 L 139.894531 20.574219 L 139.929688 26.316406 L 179.527344 9.40625 L 179.527344 179.117188 L 224.828125 154.84375 L 224.828125 18.007812 Z M 162.617188 131.394531 L 154.535156 128.601562 L 144.417969 125.128906 L 140.640625 123.808594 L 125.695312 118.640625 L 124.976562 118.375 L 85.351562 138.453125 L 85.351562 145.890625 L 123.4375 126.640625 L 125.324219 287.476562 L 168.203125 287.476562 L 168.203125 133.320312 Z M 175.527344 19.441406 L 175.527344 27.855469 L 139.894531 45.105469 L 139.894531 36.730469 Z M 175.527344 34.539062 L 175.527344 42.953125 L 139.894531 60.210938 L 139.894531 51.824219 Z M 175.527344 49.640625 L 175.527344 58.054688 L 139.894531 75.304688 L 139.894531 66.925781 Z M 175.527344 64.734375 L 175.527344 73.148438 L 139.894531 90.398438 L 139.894531 82.023438 Z M 175.527344 79.835938 L 175.527344 88.25 L 139.894531 105.5 L 139.894531 97.125 Z M 175.527344 94.933594 L 175.527344 103.347656 L 139.894531 120.597656 L 139.894531 112.21875 Z M 175.527344 110.035156 L 175.527344 118.449219 L 154.535156 128.601562 L 144.417969 125.128906 Z M 175.527344 125.128906 L 175.527344 133.542969 L 168.203125 137.089844 L 168.203125 133.3125 L 162.617188 131.386719 Z M 175.527344 140.230469 L 175.527344 148.644531 L 168.203125 152.191406 L 168.203125 143.777344 Z M 213.273438 169.222656 L 213.273438 287.484375 L 221.234375 287.484375 L 221.234375 164.84375 Z M 209.648438 170.503906 L 209.648438 287.476562 L 201.6875 287.476562 L 201.6875 174.878906 Z M 197.835938 177.183594 L 197.835938 287.476562 L 189.835938 287.476562 L 189.835938 181.558594 Z M 197.835938 177.183594 " fill-opacity="1" fill-rule="nonzero"/></g></svg>