<svg xmlns="http://www.w3.org/2000/svg" xmlns:xlink="http://www.w3.org/1999/xlink" width="500" zoomAndPan="magnify" viewBox="0 0 375 374.999991" height="500" preserveAspectRatio="xMidYMid meet" version="1.0"><defs><g/><clipPath id="1b44c3d3b2"><path d="M 54 0 L 320.917969 0 L 320.917969 375 L 54 375 Z M 54 0 " clip-rule="nonzero"/></clipPath></defs><g fill="#ffffff" fill-opacity="1"><g transform="translate(116.006934, 219.570879)"><g><path d="M 3.4375 -2.296875 L 2.671875 -2.296875 C 2.648438 -2.492188 2.566406 -2.648438 2.421875 -2.765625 C 2.285156 -2.878906 2.117188 -2.9375 1.921875 -2.9375 C 1.640625 -2.9375 1.414062 -2.832031 1.25 -2.625 C 1.082031 -2.425781 1 -2.140625 1 -1.765625 C 1 -1.390625 1.082031 -1.101562 1.25 -0.90625 C 1.414062 -0.707031 1.632812 -0.609375 1.90625 -0.609375 C 2.101562 -0.609375 2.269531 -0.660156 2.40625 -0.765625 C 2.550781 -0.867188 2.640625 -1.019531 2.671875 -1.21875 L 3.4375 -1.203125 C 3.40625 -0.992188 3.328125 -0.789062 3.203125 -0.59375 C 3.078125 -0.40625 2.90625 -0.25 2.6875 -0.125 C 2.46875 -0.0078125 2.203125 0.046875 1.890625 0.046875 C 1.578125 0.046875 1.296875 -0.0195312 1.046875 -0.15625 C 0.796875 -0.300781 0.597656 -0.507812 0.453125 -0.78125 C 0.316406 -1.050781 0.25 -1.378906 0.25 -1.765625 C 0.25 -2.160156 0.320312 -2.492188 0.46875 -2.765625 C 0.613281 -3.035156 0.8125 -3.238281 1.0625 -3.375 C 1.3125 -3.519531 1.585938 -3.59375 1.890625 -3.59375 C 2.171875 -3.59375 2.421875 -3.539062 2.640625 -3.4375 C 2.859375 -3.34375 3.035156 -3.195312 3.171875 -3 C 3.316406 -2.8125 3.40625 -2.578125 3.4375 -2.296875 Z M 3.4375 -2.296875 "/></g></g></g><g fill="#ffffff" fill-opacity="1"><g transform="translate(119.673039, 219.570879)"><g><path d="M 1.5 0.046875 C 1.226562 0.046875 0.992188 -0.0078125 0.796875 -0.125 C 0.597656 -0.238281 0.445312 -0.394531 0.34375 -0.59375 C 0.238281 -0.800781 0.1875 -1.039062 0.1875 -1.3125 C 0.1875 -1.59375 0.238281 -1.832031 0.34375 -2.03125 C 0.445312 -2.238281 0.597656 -2.398438 0.796875 -2.515625 C 0.992188 -2.628906 1.226562 -2.6875 1.5 -2.6875 C 1.769531 -2.6875 2 -2.628906 2.1875 -2.515625 C 2.382812 -2.398438 2.535156 -2.238281 2.640625 -2.03125 C 2.742188 -1.832031 2.796875 -1.59375 2.796875 -1.3125 C 2.796875 -1.039062 2.742188 -0.800781 2.640625 -0.59375 C 2.535156 -0.394531 2.382812 -0.238281 2.1875 -0.125 C 2 -0.0078125 1.769531 0.046875 1.5 0.046875 Z M 1.5 -0.515625 C 1.675781 -0.515625 1.8125 -0.585938 1.90625 -0.734375 C 2.007812 -0.890625 2.0625 -1.085938 2.0625 -1.328125 C 2.0625 -1.554688 2.007812 -1.742188 1.90625 -1.890625 C 1.8125 -2.046875 1.675781 -2.125 1.5 -2.125 C 1.3125 -2.125 1.171875 -2.046875 1.078125 -1.890625 C 0.984375 -1.742188 0.9375 -1.554688 0.9375 -1.328125 C 0.9375 -1.085938 0.984375 -0.890625 1.078125 -0.734375 C 1.171875 -0.585938 1.3125 -0.515625 1.5 -0.515625 Z M 1.5 -0.515625 "/></g></g></g><g fill="#ffffff" fill-opacity="1"><g transform="translate(122.664082, 219.570879)"><g><path d="M 0.296875 0 L 0.296875 -2.65625 L 1 -2.65625 L 1 -2.1875 L 1.03125 -2.1875 C 1.082031 -2.34375 1.171875 -2.460938 1.296875 -2.546875 C 1.429688 -2.640625 1.585938 -2.6875 1.765625 -2.6875 C 1.953125 -2.6875 2.109375 -2.640625 2.234375 -2.546875 C 2.359375 -2.460938 2.441406 -2.34375 2.484375 -2.1875 L 2.515625 -2.1875 C 2.566406 -2.34375 2.664062 -2.460938 2.8125 -2.546875 C 2.957031 -2.640625 3.128906 -2.6875 3.328125 -2.6875 C 3.566406 -2.6875 3.765625 -2.609375 3.921875 -2.453125 C 4.078125 -2.296875 4.15625 -2.070312 4.15625 -1.78125 L 4.15625 0 L 3.421875 0 L 3.421875 -1.640625 C 3.421875 -1.785156 3.378906 -1.894531 3.296875 -1.96875 C 3.222656 -2.050781 3.128906 -2.09375 3.015625 -2.09375 C 2.878906 -2.09375 2.769531 -2.046875 2.6875 -1.953125 C 2.613281 -1.867188 2.578125 -1.757812 2.578125 -1.625 L 2.578125 0 L 1.875 0 L 1.875 -1.65625 C 1.875 -1.789062 1.832031 -1.894531 1.75 -1.96875 C 1.675781 -2.050781 1.582031 -2.09375 1.46875 -2.09375 C 1.34375 -2.09375 1.238281 -2.046875 1.15625 -1.953125 C 1.070312 -1.859375 1.03125 -1.738281 1.03125 -1.59375 L 1.03125 0 Z M 0.296875 0 "/></g></g></g><g fill="#ffffff" fill-opacity="1"><g transform="translate(127.109105, 219.570879)"><g><path d="M 0.296875 0 L 0.296875 -2.65625 L 1 -2.65625 L 1 -2.1875 L 1.03125 -2.1875 C 1.082031 -2.34375 1.171875 -2.460938 1.296875 -2.546875 C 1.429688 -2.640625 1.585938 -2.6875 1.765625 -2.6875 C 1.953125 -2.6875 2.109375 -2.640625 2.234375 -2.546875 C 2.359375 -2.460938 2.441406 -2.34375 2.484375 -2.1875 L 2.515625 -2.1875 C 2.566406 -2.34375 2.664062 -2.460938 2.8125 -2.546875 C 2.957031 -2.640625 3.128906 -2.6875 3.328125 -2.6875 C 3.566406 -2.6875 3.765625 -2.609375 3.921875 -2.453125 C 4.078125 -2.296875 4.15625 -2.070312 4.15625 -1.78125 L 4.15625 0 L 3.421875 0 L 3.421875 -1.640625 C 3.421875 -1.785156 3.378906 -1.894531 3.296875 -1.96875 C 3.222656 -2.050781 3.128906 -2.09375 3.015625 -2.09375 C 2.878906 -2.09375 2.769531 -2.046875 2.6875 -1.953125 C 2.613281 -1.867188 2.578125 -1.757812 2.578125 -1.625 L 2.578125 0 L 1.875 0 L 1.875 -1.65625 C 1.875 -1.789062 1.832031 -1.894531 1.75 -1.96875 C 1.675781 -2.050781 1.582031 -2.09375 1.46875 -2.09375 C 1.34375 -2.09375 1.238281 -2.046875 1.15625 -1.953125 C 1.070312 -1.859375 1.03125 -1.738281 1.03125 -1.59375 L 1.03125 0 Z M 0.296875 0 "/></g></g></g><g fill="#ffffff" fill-opacity="1"><g transform="translate(131.554128, 219.570879)"><g><path d="M 1.5 0.046875 C 1.226562 0.046875 0.992188 -0.00390625 0.796875 -0.109375 C 0.597656 -0.222656 0.445312 -0.378906 0.34375 -0.578125 C 0.238281 -0.785156 0.1875 -1.03125 0.1875 -1.3125 C 0.1875 -1.59375 0.238281 -1.832031 0.34375 -2.03125 C 0.445312 -2.238281 0.59375 -2.398438 0.78125 -2.515625 C 0.976562 -2.628906 1.210938 -2.6875 1.484375 -2.6875 C 1.710938 -2.6875 1.921875 -2.632812 2.109375 -2.53125 C 2.296875 -2.4375 2.445312 -2.289062 2.5625 -2.09375 C 2.675781 -1.894531 2.734375 -1.644531 2.734375 -1.34375 L 2.734375 -1.140625 L 0.921875 -1.140625 C 0.921875 -0.941406 0.972656 -0.785156 1.078125 -0.671875 C 1.179688 -0.554688 1.328125 -0.5 1.515625 -0.5 C 1.640625 -0.5 1.742188 -0.523438 1.828125 -0.578125 C 1.921875 -0.628906 1.988281 -0.707031 2.03125 -0.8125 L 2.71875 -0.765625 C 2.664062 -0.515625 2.53125 -0.316406 2.3125 -0.171875 C 2.101562 -0.0234375 1.832031 0.046875 1.5 0.046875 Z M 0.921875 -1.59375 L 2.03125 -1.59375 C 2.03125 -1.75 1.976562 -1.878906 1.875 -1.984375 C 1.78125 -2.085938 1.648438 -2.140625 1.484375 -2.140625 C 1.328125 -2.140625 1.191406 -2.085938 1.078125 -1.984375 C 0.972656 -1.878906 0.921875 -1.75 0.921875 -1.59375 Z M 0.921875 -1.59375 "/></g></g></g><g fill="#ffffff" fill-opacity="1"><g transform="translate(134.46728, 219.570879)"><g><path d="M 0.296875 0 L 0.296875 -2.65625 L 1.015625 -2.65625 L 1.015625 -2.1875 L 1.03125 -2.1875 C 1.082031 -2.351562 1.164062 -2.476562 1.28125 -2.5625 C 1.394531 -2.65625 1.523438 -2.703125 1.671875 -2.703125 C 1.742188 -2.703125 1.8125 -2.691406 1.875 -2.671875 C 1.9375 -2.648438 1.992188 -2.625 2.046875 -2.59375 L 1.8125 -1.984375 C 1.78125 -2.003906 1.742188 -2.019531 1.703125 -2.03125 C 1.660156 -2.039062 1.613281 -2.046875 1.5625 -2.046875 C 1.414062 -2.046875 1.289062 -1.992188 1.1875 -1.890625 C 1.082031 -1.796875 1.03125 -1.664062 1.03125 -1.5 L 1.03125 0 Z M 0.296875 0 "/></g></g></g><g fill="#ffffff" fill-opacity="1"><g transform="translate(136.55651, 219.570879)"><g><path d="M 1.5 0.046875 C 1.226562 0.046875 0.992188 -0.0078125 0.796875 -0.125 C 0.597656 -0.238281 0.445312 -0.398438 0.34375 -0.609375 C 0.238281 -0.816406 0.1875 -1.050781 0.1875 -1.3125 C 0.1875 -1.59375 0.238281 -1.832031 0.34375 -2.03125 C 0.445312 -2.238281 0.597656 -2.398438 0.796875 -2.515625 C 0.992188 -2.628906 1.226562 -2.6875 1.5 -2.6875 C 1.726562 -2.6875 1.925781 -2.644531 2.09375 -2.5625 C 2.269531 -2.476562 2.410156 -2.359375 2.515625 -2.203125 C 2.617188 -2.054688 2.675781 -1.878906 2.6875 -1.671875 L 1.984375 -1.671875 C 1.960938 -1.804688 1.910156 -1.914062 1.828125 -2 C 1.742188 -2.082031 1.632812 -2.125 1.5 -2.125 C 1.332031 -2.125 1.195312 -2.050781 1.09375 -1.90625 C 0.988281 -1.769531 0.9375 -1.578125 0.9375 -1.328125 C 0.9375 -1.078125 0.988281 -0.878906 1.09375 -0.734375 C 1.195312 -0.597656 1.332031 -0.53125 1.5 -0.53125 C 1.625 -0.53125 1.726562 -0.566406 1.8125 -0.640625 C 1.90625 -0.722656 1.960938 -0.832031 1.984375 -0.96875 L 2.6875 -0.96875 C 2.675781 -0.769531 2.617188 -0.59375 2.515625 -0.4375 C 2.421875 -0.28125 2.285156 -0.160156 2.109375 -0.078125 C 1.929688 0.00390625 1.726562 0.046875 1.5 0.046875 Z M 1.5 0.046875 "/></g></g></g><g fill="#ffffff" fill-opacity="1"><g transform="translate(139.419463, 219.570879)"><g><path d="M 0.296875 0 L 0.296875 -2.65625 L 1.03125 -2.65625 L 1.03125 0 Z M 0.65625 -3 C 0.550781 -3 0.457031 -3.035156 0.375 -3.109375 C 0.300781 -3.179688 0.265625 -3.269531 0.265625 -3.375 C 0.265625 -3.476562 0.300781 -3.566406 0.375 -3.640625 C 0.457031 -3.710938 0.550781 -3.75 0.65625 -3.75 C 0.769531 -3.75 0.863281 -3.710938 0.9375 -3.640625 C 1.019531 -3.566406 1.0625 -3.476562 1.0625 -3.375 C 1.0625 -3.269531 1.019531 -3.179688 0.9375 -3.109375 C 0.863281 -3.035156 0.769531 -3 0.65625 -3 Z M 0.65625 -3 "/></g></g></g><g fill="#ffffff" fill-opacity="1"><g transform="translate(140.745353, 219.570879)"><g><path d="M 1.046875 0.046875 C 0.796875 0.046875 0.585938 -0.015625 0.421875 -0.140625 C 0.253906 -0.273438 0.171875 -0.476562 0.171875 -0.75 C 0.171875 -0.945312 0.21875 -1.097656 0.3125 -1.203125 C 0.40625 -1.316406 0.523438 -1.398438 0.671875 -1.453125 C 0.828125 -1.503906 0.992188 -1.539062 1.171875 -1.5625 C 1.398438 -1.582031 1.5625 -1.601562 1.65625 -1.625 C 1.757812 -1.65625 1.8125 -1.710938 1.8125 -1.796875 L 1.8125 -1.8125 C 1.8125 -1.914062 1.773438 -2 1.703125 -2.0625 C 1.640625 -2.125 1.546875 -2.15625 1.421875 -2.15625 C 1.285156 -2.15625 1.175781 -2.125 1.09375 -2.0625 C 1.019531 -2.007812 0.96875 -1.9375 0.9375 -1.84375 L 0.265625 -1.90625 C 0.316406 -2.144531 0.441406 -2.332031 0.640625 -2.46875 C 0.835938 -2.613281 1.097656 -2.6875 1.421875 -2.6875 C 1.617188 -2.6875 1.800781 -2.65625 1.96875 -2.59375 C 2.144531 -2.53125 2.285156 -2.429688 2.390625 -2.296875 C 2.492188 -2.171875 2.546875 -2.003906 2.546875 -1.796875 L 2.546875 0 L 1.84375 0 L 1.84375 -0.375 L 1.828125 -0.375 C 1.765625 -0.25 1.664062 -0.144531 1.53125 -0.0625 C 1.40625 0.0078125 1.242188 0.046875 1.046875 0.046875 Z M 1.265625 -0.453125 C 1.421875 -0.453125 1.550781 -0.5 1.65625 -0.59375 C 1.757812 -0.6875 1.8125 -0.804688 1.8125 -0.953125 L 1.8125 -1.234375 C 1.789062 -1.210938 1.75 -1.191406 1.6875 -1.171875 C 1.625 -1.160156 1.554688 -1.148438 1.484375 -1.140625 C 1.421875 -1.128906 1.363281 -1.117188 1.3125 -1.109375 C 1.175781 -1.085938 1.066406 -1.050781 0.984375 -1 C 0.910156 -0.945312 0.875 -0.867188 0.875 -0.765625 C 0.875 -0.660156 0.910156 -0.582031 0.984375 -0.53125 C 1.054688 -0.476562 1.148438 -0.453125 1.265625 -0.453125 Z M 1.265625 -0.453125 "/></g></g></g><g fill="#ffffff" fill-opacity="1"><g transform="translate(143.573688, 219.570879)"><g><path d="M 1.03125 -3.546875 L 1.03125 0 L 0.296875 0 L 0.296875 -3.546875 Z M 1.03125 -3.546875 "/></g></g></g><g fill="#ffffff" fill-opacity="1"><g transform="translate(144.899578, 219.570879)"><g/></g></g><g fill="#ffffff" fill-opacity="1"><g transform="translate(146.029874, 219.570879)"><g><path d="M 0.3125 0 L 0.3125 -3.546875 L 1.703125 -3.546875 C 1.972656 -3.546875 2.203125 -3.492188 2.390625 -3.390625 C 2.578125 -3.285156 2.722656 -3.144531 2.828125 -2.96875 C 2.929688 -2.789062 2.984375 -2.582031 2.984375 -2.34375 C 2.984375 -2.101562 2.929688 -1.894531 2.828125 -1.71875 C 2.722656 -1.539062 2.570312 -1.398438 2.375 -1.296875 C 2.1875 -1.203125 1.957031 -1.15625 1.6875 -1.15625 L 1.0625 -1.15625 L 1.0625 0 Z M 1.0625 -1.75 L 1.5625 -1.75 C 1.78125 -1.75 1.941406 -1.800781 2.046875 -1.90625 C 2.148438 -2.019531 2.203125 -2.164062 2.203125 -2.34375 C 2.203125 -2.519531 2.148438 -2.660156 2.046875 -2.765625 C 1.941406 -2.878906 1.78125 -2.9375 1.5625 -2.9375 L 1.0625 -2.9375 Z M 1.0625 -1.75 "/></g></g></g><g fill="#ffffff" fill-opacity="1"><g transform="translate(149.187088, 219.570879)"><g><path d="M 1.046875 0.046875 C 0.796875 0.046875 0.585938 -0.015625 0.421875 -0.140625 C 0.253906 -0.273438 0.171875 -0.476562 0.171875 -0.75 C 0.171875 -0.945312 0.21875 -1.097656 0.3125 -1.203125 C 0.40625 -1.316406 0.523438 -1.398438 0.671875 -1.453125 C 0.828125 -1.503906 0.992188 -1.539062 1.171875 -1.5625 C 1.398438 -1.582031 1.5625 -1.601562 1.65625 -1.625 C 1.757812 -1.65625 1.8125 -1.710938 1.8125 -1.796875 L 1.8125 -1.8125 C 1.8125 -1.914062 1.773438 -2 1.703125 -2.0625 C 1.640625 -2.125 1.546875 -2.15625 1.421875 -2.15625 C 1.285156 -2.15625 1.175781 -2.125 1.09375 -2.0625 C 1.019531 -2.007812 0.96875 -1.9375 0.9375 -1.84375 L 0.265625 -1.90625 C 0.316406 -2.144531 0.441406 -2.332031 0.640625 -2.46875 C 0.835938 -2.613281 1.097656 -2.6875 1.421875 -2.6875 C 1.617188 -2.6875 1.800781 -2.65625 1.96875 -2.59375 C 2.144531 -2.53125 2.285156 -2.429688 2.390625 -2.296875 C 2.492188 -2.171875 2.546875 -2.003906 2.546875 -1.796875 L 2.546875 0 L 1.84375 0 L 1.84375 -0.375 L 1.828125 -0.375 C 1.765625 -0.25 1.664062 -0.144531 1.53125 -0.0625 C 1.40625 0.0078125 1.242188 0.046875 1.046875 0.046875 Z M 1.265625 -0.453125 C 1.421875 -0.453125 1.550781 -0.5 1.65625 -0.59375 C 1.757812 -0.6875 1.8125 -0.804688 1.8125 -0.953125 L 1.8125 -1.234375 C 1.789062 -1.210938 1.75 -1.191406 1.6875 -1.171875 C 1.625 -1.160156 1.554688 -1.148438 1.484375 -1.140625 C 1.421875 -1.128906 1.363281 -1.117188 1.3125 -1.109375 C 1.175781 -1.085938 1.066406 -1.050781 0.984375 -1 C 0.910156 -0.945312 0.875 -0.867188 0.875 -0.765625 C 0.875 -0.660156 0.910156 -0.582031 0.984375 -0.53125 C 1.054688 -0.476562 1.148438 -0.453125 1.265625 -0.453125 Z M 1.265625 -0.453125 "/></g></g></g><g fill="#ffffff" fill-opacity="1"><g transform="translate(152.015423, 219.570879)"><g><path d="M 0.296875 0 L 0.296875 -2.65625 L 1.03125 -2.65625 L 1.03125 0 Z M 0.65625 -3 C 0.550781 -3 0.457031 -3.035156 0.375 -3.109375 C 0.300781 -3.179688 0.265625 -3.269531 0.265625 -3.375 C 0.265625 -3.476562 0.300781 -3.566406 0.375 -3.640625 C 0.457031 -3.710938 0.550781 -3.75 0.65625 -3.75 C 0.769531 -3.75 0.863281 -3.710938 0.9375 -3.640625 C 1.019531 -3.566406 1.0625 -3.476562 1.0625 -3.375 C 1.0625 -3.269531 1.019531 -3.179688 0.9375 -3.109375 C 0.863281 -3.035156 0.769531 -3 0.65625 -3 Z M 0.65625 -3 "/></g></g></g><g fill="#ffffff" fill-opacity="1"><g transform="translate(153.341313, 219.570879)"><g><path d="M 1.03125 -1.53125 L 1.03125 0 L 0.296875 0 L 0.296875 -2.65625 L 1 -2.65625 L 1 -2.1875 L 1.03125 -2.1875 C 1.09375 -2.34375 1.191406 -2.460938 1.328125 -2.546875 C 1.460938 -2.640625 1.628906 -2.6875 1.828125 -2.6875 C 2.109375 -2.6875 2.332031 -2.597656 2.5 -2.421875 C 2.664062 -2.242188 2.75 -2 2.75 -1.6875 L 2.75 0 L 2.015625 0 L 2.015625 -1.5625 C 2.015625 -1.726562 1.96875 -1.851562 1.875 -1.9375 C 1.789062 -2.03125 1.675781 -2.078125 1.53125 -2.078125 C 1.382812 -2.078125 1.265625 -2.03125 1.171875 -1.9375 C 1.078125 -1.84375 1.03125 -1.707031 1.03125 -1.53125 Z M 1.03125 -1.53125 "/></g></g></g><g fill="#ffffff" fill-opacity="1"><g transform="translate(156.372167, 219.570879)"><g><path d="M 1.703125 -2.65625 L 1.703125 -2.109375 L 1.203125 -2.109375 L 1.203125 -0.8125 C 1.203125 -0.71875 1.222656 -0.648438 1.265625 -0.609375 C 1.316406 -0.578125 1.378906 -0.5625 1.453125 -0.5625 C 1.492188 -0.5625 1.53125 -0.5625 1.5625 -0.5625 C 1.59375 -0.570312 1.617188 -0.578125 1.640625 -0.578125 L 1.75 -0.03125 C 1.71875 -0.0195312 1.664062 -0.0078125 1.59375 0 C 1.53125 0.0195312 1.453125 0.03125 1.359375 0.03125 C 1.085938 0.0390625 0.867188 -0.015625 0.703125 -0.140625 C 0.546875 -0.265625 0.46875 -0.457031 0.46875 -0.71875 L 0.46875 -2.109375 L 0.109375 -2.109375 L 0.109375 -2.65625 L 0.46875 -2.65625 L 0.46875 -3.296875 L 1.203125 -3.296875 L 1.203125 -2.65625 Z M 1.703125 -2.65625 "/></g></g></g><g fill="#ffffff" fill-opacity="1"><g transform="translate(158.265801, 219.570879)"><g><path d="M 0.296875 0 L 0.296875 -2.65625 L 1.03125 -2.65625 L 1.03125 0 Z M 0.65625 -3 C 0.550781 -3 0.457031 -3.035156 0.375 -3.109375 C 0.300781 -3.179688 0.265625 -3.269531 0.265625 -3.375 C 0.265625 -3.476562 0.300781 -3.566406 0.375 -3.640625 C 0.457031 -3.710938 0.550781 -3.75 0.65625 -3.75 C 0.769531 -3.75 0.863281 -3.710938 0.9375 -3.640625 C 1.019531 -3.566406 1.0625 -3.476562 1.0625 -3.375 C 1.0625 -3.269531 1.019531 -3.179688 0.9375 -3.109375 C 0.863281 -3.035156 0.769531 -3 0.65625 -3 Z M 0.65625 -3 "/></g></g></g><g fill="#ffffff" fill-opacity="1"><g transform="translate(159.591691, 219.570879)"><g><path d="M 1.03125 -1.53125 L 1.03125 0 L 0.296875 0 L 0.296875 -2.65625 L 1 -2.65625 L 1 -2.1875 L 1.03125 -2.1875 C 1.09375 -2.34375 1.191406 -2.460938 1.328125 -2.546875 C 1.460938 -2.640625 1.628906 -2.6875 1.828125 -2.6875 C 2.109375 -2.6875 2.332031 -2.597656 2.5 -2.421875 C 2.664062 -2.242188 2.75 -2 2.75 -1.6875 L 2.75 0 L 2.015625 0 L 2.015625 -1.5625 C 2.015625 -1.726562 1.96875 -1.851562 1.875 -1.9375 C 1.789062 -2.03125 1.675781 -2.078125 1.53125 -2.078125 C 1.382812 -2.078125 1.265625 -2.03125 1.171875 -1.9375 C 1.078125 -1.84375 1.03125 -1.707031 1.03125 -1.53125 Z M 1.03125 -1.53125 "/></g></g></g><g fill="#ffffff" fill-opacity="1"><g transform="translate(162.622544, 219.570879)"><g><path d="M 1.5 1.03125 C 1.132812 1.03125 0.847656 0.957031 0.640625 0.8125 C 0.441406 0.675781 0.320312 0.507812 0.28125 0.3125 L 0.953125 0.21875 C 0.984375 0.289062 1.039062 0.351562 1.125 0.40625 C 1.21875 0.46875 1.347656 0.5 1.515625 0.5 C 1.671875 0.5 1.800781 0.460938 1.90625 0.390625 C 2.007812 0.316406 2.0625 0.191406 2.0625 0.015625 L 2.0625 -0.46875 L 2.03125 -0.46875 C 1.976562 -0.363281 1.890625 -0.265625 1.765625 -0.171875 C 1.648438 -0.078125 1.488281 -0.03125 1.28125 -0.03125 C 1.070312 -0.03125 0.882812 -0.078125 0.71875 -0.171875 C 0.5625 -0.265625 0.4375 -0.40625 0.34375 -0.59375 C 0.25 -0.789062 0.203125 -1.035156 0.203125 -1.328125 C 0.203125 -1.628906 0.25 -1.878906 0.34375 -2.078125 C 0.4375 -2.285156 0.566406 -2.4375 0.734375 -2.53125 C 0.898438 -2.632812 1.078125 -2.6875 1.265625 -2.6875 C 1.421875 -2.6875 1.546875 -2.660156 1.640625 -2.609375 C 1.742188 -2.566406 1.828125 -2.507812 1.890625 -2.4375 C 1.953125 -2.363281 2 -2.289062 2.03125 -2.21875 L 2.0625 -2.21875 L 2.0625 -2.65625 L 2.796875 -2.65625 L 2.796875 0.03125 C 2.796875 0.25 2.738281 0.429688 2.625 0.578125 C 2.507812 0.734375 2.351562 0.847656 2.15625 0.921875 C 1.96875 0.992188 1.75 1.03125 1.5 1.03125 Z M 1.515625 -0.59375 C 1.691406 -0.59375 1.828125 -0.65625 1.921875 -0.78125 C 2.015625 -0.914062 2.0625 -1.101562 2.0625 -1.34375 C 2.0625 -1.570312 2.015625 -1.753906 1.921875 -1.890625 C 1.828125 -2.035156 1.691406 -2.109375 1.515625 -2.109375 C 1.328125 -2.109375 1.1875 -2.035156 1.09375 -1.890625 C 1 -1.742188 0.953125 -1.5625 0.953125 -1.34375 C 0.953125 -1.113281 1 -0.929688 1.09375 -0.796875 C 1.1875 -0.660156 1.328125 -0.59375 1.515625 -0.59375 Z M 1.515625 -0.59375 "/></g></g></g><g clip-path="url(#1b44c3d3b2)"><path fill="#000000" d="M 320.613281 241.375 L 320.613281 412.554688 L 255.292969 412.554688 L 255.292969 221.167969 L 261.988281 217.578125 Z M 189.980469 0 L 132.832031 27.453125 L 132.882812 35.734375 L 189.980469 11.339844 L 189.980469 256.199219 L 255.304688 221.179688 L 255.304688 23.746094 Z M 165.597656 187.34375 L 153.945312 183.316406 L 139.355469 178.304688 L 133.910156 176.402344 L 112.355469 168.941406 L 111.320312 168.558594 L 54.179688 197.53125 L 54.179688 208.257812 L 109.097656 180.484375 L 111.824219 412.542969 L 173.652344 412.542969 L 173.652344 190.125 Z M 184.214844 25.820312 L 184.214844 37.957031 L 132.832031 62.847656 L 132.832031 50.761719 Z M 184.214844 47.597656 L 184.214844 59.738281 L 132.832031 84.636719 L 132.832031 72.539062 Z M 184.214844 69.386719 L 184.214844 81.527344 L 132.832031 106.417969 L 132.832031 94.328125 Z M 184.214844 91.167969 L 184.214844 103.308594 L 132.832031 128.195312 L 132.832031 116.109375 Z M 184.214844 112.957031 L 184.214844 125.097656 L 132.832031 149.984375 L 132.832031 137.898438 Z M 184.214844 134.734375 L 184.214844 146.875 L 132.832031 171.765625 L 132.832031 159.679688 Z M 184.214844 156.527344 L 184.214844 168.664062 L 153.945312 183.316406 L 139.355469 178.304688 Z M 184.214844 178.304688 L 184.214844 190.445312 L 173.652344 195.5625 L 173.652344 190.113281 L 165.597656 187.335938 Z M 184.214844 200.09375 L 184.214844 212.234375 L 173.652344 217.351562 L 173.652344 205.214844 Z M 238.640625 241.921875 L 238.640625 412.554688 L 250.125 412.554688 L 250.125 235.605469 Z M 233.417969 243.769531 L 233.417969 412.542969 L 221.9375 412.542969 L 221.9375 250.085938 Z M 216.382812 253.410156 L 216.382812 412.542969 L 204.847656 412.542969 L 204.847656 259.726562 Z M 216.382812 253.410156 " fill-opacity="1" fill-rule="nonzero"/></g></svg>