<svg xmlns="http://www.w3.org/2000/svg" xmlns:xlink="http://www.w3.org/1999/xlink" width="500" zoomAndPan="magnify" viewBox="0 0 375 374.999991" height="500" preserveAspectRatio="xMidYMid meet" version="1.0"><defs><g/><clipPath id="2a3ab12327"><path d="M 102 213 L 162 213 L 162 331.5 L 102 331.5 Z M 102 213 " clip-rule="nonzero"/></clipPath><clipPath id="93ddee3a90"><path d="M 338 272 L 375 272 L 375 331.5 L 338 331.5 Z M 338 272 " clip-rule="nonzero"/></clipPath><clipPath id="fb380aac4f"><path d="M 58 45 L 353 45 L 353 331.5 L 58 331.5 Z M 58 45 " clip-rule="nonzero"/></clipPath><clipPath id="8a1d76a519"><path d="M 0 272 L 45 272 L 45 331.5 L 0 331.5 Z M 0 272 " clip-rule="nonzero"/></clipPath></defs><g fill="#ffffff" fill-opacity="1"><g transform="translate(131.250435, 162.099995)"><g><path d="M 1.015625 0 L 1.015625 -11.640625 L 5.609375 -11.640625 C 6.921875 -11.640625 7.941406 -11.289062 8.671875 -10.59375 C 9.398438 -9.90625 9.765625 -8.984375 9.765625 -7.828125 C 9.765625 -7.035156 9.585938 -6.359375 9.234375 -5.796875 C 8.878906 -5.234375 8.375 -4.804688 7.71875 -4.515625 L 10.1875 0 L 7.46875 0 L 5.265625 -4.125 L 3.46875 -4.125 L 3.46875 0 Z M 3.46875 -6.109375 L 5.140625 -6.109375 C 6.535156 -6.109375 7.234375 -6.679688 7.234375 -7.828125 C 7.234375 -9.023438 6.53125 -9.625 5.125 -9.625 L 3.46875 -9.625 Z M 3.46875 -6.109375 "/></g></g></g><g fill="#ffffff" fill-opacity="1"><g transform="translate(141.747779, 162.099995)"><g><path d="M 4.9375 0.171875 C 4.050781 0.171875 3.28125 -0.0078125 2.625 -0.375 C 1.976562 -0.738281 1.476562 -1.253906 1.125 -1.921875 C 0.78125 -2.597656 0.609375 -3.398438 0.609375 -4.328125 C 0.609375 -5.222656 0.78125 -6.007812 1.125 -6.6875 C 1.476562 -7.363281 1.972656 -7.890625 2.609375 -8.265625 C 3.242188 -8.648438 3.988281 -8.84375 4.84375 -8.84375 C 5.613281 -8.84375 6.304688 -8.675781 6.921875 -8.34375 C 7.546875 -8.019531 8.039062 -7.53125 8.40625 -6.875 C 8.769531 -6.21875 8.953125 -5.394531 8.953125 -4.40625 L 8.953125 -3.75 L 3 -3.75 L 3 -3.734375 C 3 -3.085938 3.175781 -2.578125 3.53125 -2.203125 C 3.894531 -1.828125 4.378906 -1.640625 4.984375 -1.640625 C 5.390625 -1.640625 5.738281 -1.722656 6.03125 -1.890625 C 6.332031 -2.054688 6.539062 -2.304688 6.65625 -2.640625 L 8.890625 -2.5 C 8.722656 -1.6875 8.289062 -1.035156 7.59375 -0.546875 C 6.90625 -0.0664062 6.019531 0.171875 4.9375 0.171875 Z M 3 -5.25 L 6.671875 -5.25 C 6.671875 -5.757812 6.503906 -6.179688 6.171875 -6.515625 C 5.835938 -6.859375 5.410156 -7.03125 4.890625 -7.03125 C 4.347656 -7.03125 3.90625 -6.851562 3.5625 -6.5 C 3.21875 -6.15625 3.03125 -5.738281 3 -5.25 Z M 3 -5.25 "/></g></g></g><g fill="#ffffff" fill-opacity="1"><g transform="translate(151.307864, 162.099995)"><g><path d="M 8.234375 -6.234375 L 6.015625 -6.109375 C 5.953125 -6.378906 5.796875 -6.613281 5.546875 -6.8125 C 5.304688 -7.019531 4.972656 -7.125 4.546875 -7.125 C 4.171875 -7.125 3.851562 -7.046875 3.59375 -6.890625 C 3.332031 -6.734375 3.207031 -6.523438 3.21875 -6.265625 C 3.207031 -6.054688 3.285156 -5.878906 3.453125 -5.734375 C 3.628906 -5.585938 3.921875 -5.472656 4.328125 -5.390625 L 5.90625 -5.0625 C 7.582031 -4.71875 8.421875 -3.929688 8.421875 -2.703125 C 8.421875 -2.128906 8.253906 -1.625 7.921875 -1.1875 C 7.585938 -0.757812 7.128906 -0.425781 6.546875 -0.1875 C 5.960938 0.0507812 5.296875 0.171875 4.546875 0.171875 C 3.390625 0.171875 2.46875 -0.0664062 1.78125 -0.546875 C 1.09375 -1.035156 0.691406 -1.695312 0.578125 -2.53125 L 2.953125 -2.65625 C 3.035156 -2.300781 3.210938 -2.03125 3.484375 -1.84375 C 3.753906 -1.664062 4.109375 -1.578125 4.546875 -1.578125 C 4.972656 -1.578125 5.3125 -1.660156 5.5625 -1.828125 C 5.820312 -1.992188 5.957031 -2.203125 5.96875 -2.453125 C 5.957031 -2.890625 5.582031 -3.179688 4.84375 -3.328125 L 3.328125 -3.625 C 1.640625 -3.96875 0.800781 -4.800781 0.8125 -6.125 C 0.8125 -6.96875 1.144531 -7.628906 1.8125 -8.109375 C 2.488281 -8.597656 3.390625 -8.84375 4.515625 -8.84375 C 5.617188 -8.84375 6.484375 -8.609375 7.109375 -8.140625 C 7.742188 -7.671875 8.117188 -7.035156 8.234375 -6.234375 Z M 8.234375 -6.234375 "/></g></g></g><g fill="#ffffff" fill-opacity="1"><g transform="translate(160.294233, 162.099995)"><g><path d="M 0.96875 0 L 0.96875 -8.734375 L 3.390625 -8.734375 L 3.390625 0 Z M 2.1875 -9.859375 C 1.832031 -9.859375 1.523438 -9.976562 1.265625 -10.21875 C 1.003906 -10.457031 0.875 -10.742188 0.875 -11.078125 C 0.875 -11.410156 1.003906 -11.695312 1.265625 -11.9375 C 1.523438 -12.175781 1.832031 -12.296875 2.1875 -12.296875 C 2.550781 -12.296875 2.859375 -12.175781 3.109375 -11.9375 C 3.367188 -11.695312 3.5 -11.410156 3.5 -11.078125 C 3.5 -10.742188 3.367188 -10.457031 3.109375 -10.21875 C 2.859375 -9.976562 2.550781 -9.859375 2.1875 -9.859375 Z M 2.1875 -9.859375 "/></g></g></g><g fill="#ffffff" fill-opacity="1"><g transform="translate(164.645402, 162.099995)"><g><path d="M 4.1875 0.140625 C 3.519531 0.140625 2.914062 -0.03125 2.375 -0.375 C 1.84375 -0.71875 1.421875 -1.222656 1.109375 -1.890625 C 0.796875 -2.554688 0.640625 -3.378906 0.640625 -4.359375 C 0.640625 -5.359375 0.800781 -6.1875 1.125 -6.84375 C 1.445312 -7.507812 1.875 -8.007812 2.40625 -8.34375 C 2.945312 -8.675781 3.535156 -8.84375 4.171875 -8.84375 C 4.660156 -8.84375 5.066406 -8.757812 5.390625 -8.59375 C 5.722656 -8.425781 5.988281 -8.222656 6.1875 -7.984375 C 6.394531 -7.742188 6.550781 -7.503906 6.65625 -7.265625 L 6.734375 -7.265625 L 6.734375 -11.640625 L 9.140625 -11.640625 L 9.140625 0 L 6.765625 0 L 6.765625 -1.390625 L 6.65625 -1.390625 C 6.550781 -1.148438 6.394531 -0.910156 6.1875 -0.671875 C 5.976562 -0.441406 5.707031 -0.25 5.375 -0.09375 C 5.050781 0.0625 4.65625 0.140625 4.1875 0.140625 Z M 4.953125 -1.78125 C 5.535156 -1.78125 5.984375 -2.015625 6.296875 -2.484375 C 6.617188 -2.960938 6.78125 -3.585938 6.78125 -4.359375 C 6.78125 -5.140625 6.617188 -5.757812 6.296875 -6.21875 C 5.984375 -6.6875 5.535156 -6.921875 4.953125 -6.921875 C 4.347656 -6.921875 3.890625 -6.679688 3.578125 -6.203125 C 3.265625 -5.734375 3.109375 -5.117188 3.109375 -4.359375 C 3.109375 -3.597656 3.265625 -2.976562 3.578125 -2.5 C 3.898438 -2.019531 4.359375 -1.78125 4.953125 -1.78125 Z M 4.953125 -1.78125 "/></g></g></g><g fill="#ffffff" fill-opacity="1"><g transform="translate(174.807606, 162.099995)"><g><path d="M 4.9375 0.171875 C 4.050781 0.171875 3.28125 -0.0078125 2.625 -0.375 C 1.976562 -0.738281 1.476562 -1.253906 1.125 -1.921875 C 0.78125 -2.597656 0.609375 -3.398438 0.609375 -4.328125 C 0.609375 -5.222656 0.78125 -6.007812 1.125 -6.6875 C 1.476562 -7.363281 1.972656 -7.890625 2.609375 -8.265625 C 3.242188 -8.648438 3.988281 -8.84375 4.84375 -8.84375 C 5.613281 -8.84375 6.304688 -8.675781 6.921875 -8.34375 C 7.546875 -8.019531 8.039062 -7.53125 8.40625 -6.875 C 8.769531 -6.21875 8.953125 -5.394531 8.953125 -4.40625 L 8.953125 -3.75 L 3 -3.75 L 3 -3.734375 C 3 -3.085938 3.175781 -2.578125 3.53125 -2.203125 C 3.894531 -1.828125 4.378906 -1.640625 4.984375 -1.640625 C 5.390625 -1.640625 5.738281 -1.722656 6.03125 -1.890625 C 6.332031 -2.054688 6.539062 -2.304688 6.65625 -2.640625 L 8.890625 -2.5 C 8.722656 -1.6875 8.289062 -1.035156 7.59375 -0.546875 C 6.90625 -0.0664062 6.019531 0.171875 4.9375 0.171875 Z M 3 -5.25 L 6.671875 -5.25 C 6.671875 -5.757812 6.503906 -6.179688 6.171875 -6.515625 C 5.835938 -6.859375 5.410156 -7.03125 4.890625 -7.03125 C 4.347656 -7.03125 3.90625 -6.851562 3.5625 -6.5 C 3.21875 -6.15625 3.03125 -5.738281 3 -5.25 Z M 3 -5.25 "/></g></g></g><g fill="#ffffff" fill-opacity="1"><g transform="translate(184.367691, 162.099995)"><g><path d="M 3.390625 -5.046875 L 3.390625 0 L 0.96875 0 L 0.96875 -8.734375 L 3.265625 -8.734375 L 3.265625 -7.1875 L 3.375 -7.1875 C 3.570312 -7.695312 3.894531 -8.097656 4.34375 -8.390625 C 4.800781 -8.691406 5.351562 -8.84375 6 -8.84375 C 6.90625 -8.84375 7.632812 -8.546875 8.1875 -7.953125 C 8.738281 -7.367188 9.015625 -6.570312 9.015625 -5.5625 L 9.015625 0 L 6.59375 0 L 6.59375 -5.125 C 6.59375 -5.65625 6.453125 -6.070312 6.171875 -6.375 C 5.898438 -6.675781 5.523438 -6.828125 5.046875 -6.828125 C 4.554688 -6.828125 4.15625 -6.671875 3.84375 -6.359375 C 3.539062 -6.046875 3.390625 -5.609375 3.390625 -5.046875 Z M 3.390625 -5.046875 "/></g></g></g><g fill="#ffffff" fill-opacity="1"><g transform="translate(194.314037, 162.099995)"><g><path d="M 5.609375 -8.734375 L 5.609375 -6.90625 L 3.96875 -6.90625 L 3.96875 -2.6875 C 3.96875 -2.351562 4.039062 -2.125 4.1875 -2 C 4.34375 -1.882812 4.539062 -1.828125 4.78125 -1.828125 C 4.894531 -1.828125 5.007812 -1.835938 5.125 -1.859375 C 5.238281 -1.878906 5.328125 -1.894531 5.390625 -1.90625 L 5.765625 -0.109375 C 5.640625 -0.0664062 5.46875 -0.0195312 5.25 0.03125 C 5.03125 0.0820312 4.765625 0.113281 4.453125 0.125 C 3.578125 0.15625 2.875 -0.0351562 2.34375 -0.453125 C 1.8125 -0.867188 1.546875 -1.503906 1.546875 -2.359375 L 1.546875 -6.90625 L 0.359375 -6.90625 L 0.359375 -8.734375 L 1.546875 -8.734375 L 1.546875 -10.8125 L 3.96875 -10.8125 L 3.96875 -8.734375 Z M 5.609375 -8.734375 "/></g></g></g><g fill="#ffffff" fill-opacity="1"><g transform="translate(200.528373, 162.099995)"><g><path d="M 0.96875 0 L 0.96875 -8.734375 L 3.390625 -8.734375 L 3.390625 0 Z M 2.1875 -9.859375 C 1.832031 -9.859375 1.523438 -9.976562 1.265625 -10.21875 C 1.003906 -10.457031 0.875 -10.742188 0.875 -11.078125 C 0.875 -11.410156 1.003906 -11.695312 1.265625 -11.9375 C 1.523438 -12.175781 1.832031 -12.296875 2.1875 -12.296875 C 2.550781 -12.296875 2.859375 -12.175781 3.109375 -11.9375 C 3.367188 -11.695312 3.5 -11.410156 3.5 -11.078125 C 3.5 -10.742188 3.367188 -10.457031 3.109375 -10.21875 C 2.859375 -9.976562 2.550781 -9.859375 2.1875 -9.859375 Z M 2.1875 -9.859375 "/></g></g></g><g fill="#ffffff" fill-opacity="1"><g transform="translate(204.879542, 162.099995)"><g><path d="M 3.453125 0.171875 C 2.617188 0.171875 1.925781 -0.046875 1.375 -0.484375 C 0.832031 -0.921875 0.5625 -1.570312 0.5625 -2.4375 C 0.5625 -3.09375 0.710938 -3.601562 1.015625 -3.96875 C 1.328125 -4.34375 1.726562 -4.613281 2.21875 -4.78125 C 2.71875 -4.957031 3.253906 -5.070312 3.828125 -5.125 C 4.585938 -5.195312 5.128906 -5.273438 5.453125 -5.359375 C 5.785156 -5.441406 5.953125 -5.625 5.953125 -5.90625 L 5.953125 -5.9375 C 5.953125 -6.300781 5.835938 -6.582031 5.609375 -6.78125 C 5.378906 -6.976562 5.0625 -7.078125 4.65625 -7.078125 C 4.21875 -7.078125 3.867188 -6.976562 3.609375 -6.78125 C 3.359375 -6.59375 3.191406 -6.351562 3.109375 -6.0625 L 0.859375 -6.25 C 1.023438 -7.039062 1.4375 -7.671875 2.09375 -8.140625 C 2.757812 -8.609375 3.617188 -8.84375 4.671875 -8.84375 C 5.316406 -8.84375 5.921875 -8.738281 6.484375 -8.53125 C 7.046875 -8.332031 7.5 -8.015625 7.84375 -7.578125 C 8.195312 -7.140625 8.375 -6.578125 8.375 -5.890625 L 8.375 0 L 6.078125 0 L 6.078125 -1.203125 L 6 -1.203125 C 5.789062 -0.804688 5.472656 -0.476562 5.046875 -0.21875 C 4.628906 0.0390625 4.097656 0.171875 3.453125 0.171875 Z M 4.140625 -1.5 C 4.671875 -1.5 5.109375 -1.65625 5.453125 -1.96875 C 5.796875 -2.28125 5.96875 -2.664062 5.96875 -3.125 L 5.96875 -4.046875 C 5.875 -3.984375 5.726562 -3.925781 5.53125 -3.875 C 5.332031 -3.820312 5.117188 -3.773438 4.890625 -3.734375 C 4.660156 -3.703125 4.457031 -3.675781 4.28125 -3.65625 C 3.851562 -3.59375 3.507812 -3.472656 3.25 -3.296875 C 3 -3.117188 2.875 -2.859375 2.875 -2.515625 C 2.875 -2.179688 2.992188 -1.925781 3.234375 -1.75 C 3.472656 -1.582031 3.773438 -1.5 4.140625 -1.5 Z M 4.140625 -1.5 "/></g></g></g><g fill="#ffffff" fill-opacity="1"><g transform="translate(214.161283, 162.099995)"><g><path d="M 3.390625 -11.640625 L 3.390625 0 L 0.96875 0 L 0.96875 -11.640625 Z M 3.390625 -11.640625 "/></g></g></g><g fill="#ffffff" fill-opacity="1"><g transform="translate(218.512453, 162.099995)"><g/></g></g><g fill="#ffffff" fill-opacity="1"><g transform="translate(222.221746, 162.099995)"><g><path d="M 1.015625 0 L 1.015625 -11.640625 L 5.609375 -11.640625 C 6.484375 -11.640625 7.234375 -11.46875 7.859375 -11.125 C 8.484375 -10.789062 8.957031 -10.328125 9.28125 -9.734375 C 9.601562 -9.148438 9.765625 -8.46875 9.765625 -7.6875 C 9.765625 -6.914062 9.597656 -6.234375 9.265625 -5.640625 C 8.929688 -5.054688 8.445312 -4.597656 7.8125 -4.265625 C 7.1875 -3.929688 6.429688 -3.765625 5.546875 -3.765625 L 3.46875 -3.765625 L 3.46875 0 Z M 3.46875 -5.75 L 5.140625 -5.75 C 5.847656 -5.75 6.375 -5.925781 6.71875 -6.28125 C 7.0625 -6.644531 7.234375 -7.113281 7.234375 -7.6875 C 7.234375 -8.269531 7.0625 -8.738281 6.71875 -9.09375 C 6.375 -9.445312 5.84375 -9.625 5.125 -9.625 L 3.46875 -9.625 Z M 3.46875 -5.75 "/></g></g></g><g fill="#ffffff" fill-opacity="1"><g transform="translate(232.582768, 162.099995)"><g><path d="M 3.453125 0.171875 C 2.617188 0.171875 1.925781 -0.046875 1.375 -0.484375 C 0.832031 -0.921875 0.5625 -1.570312 0.5625 -2.4375 C 0.5625 -3.09375 0.710938 -3.601562 1.015625 -3.96875 C 1.328125 -4.34375 1.726562 -4.613281 2.21875 -4.78125 C 2.71875 -4.957031 3.253906 -5.070312 3.828125 -5.125 C 4.585938 -5.195312 5.128906 -5.273438 5.453125 -5.359375 C 5.785156 -5.441406 5.953125 -5.625 5.953125 -5.90625 L 5.953125 -5.9375 C 5.953125 -6.300781 5.835938 -6.582031 5.609375 -6.78125 C 5.378906 -6.976562 5.0625 -7.078125 4.65625 -7.078125 C 4.21875 -7.078125 3.867188 -6.976562 3.609375 -6.78125 C 3.359375 -6.59375 3.191406 -6.351562 3.109375 -6.0625 L 0.859375 -6.25 C 1.023438 -7.039062 1.4375 -7.671875 2.09375 -8.140625 C 2.757812 -8.609375 3.617188 -8.84375 4.671875 -8.84375 C 5.316406 -8.84375 5.921875 -8.738281 6.484375 -8.53125 C 7.046875 -8.332031 7.5 -8.015625 7.84375 -7.578125 C 8.195312 -7.140625 8.375 -6.578125 8.375 -5.890625 L 8.375 0 L 6.078125 0 L 6.078125 -1.203125 L 6 -1.203125 C 5.789062 -0.804688 5.472656 -0.476562 5.046875 -0.21875 C 4.628906 0.0390625 4.097656 0.171875 3.453125 0.171875 Z M 4.140625 -1.5 C 4.671875 -1.5 5.109375 -1.65625 5.453125 -1.96875 C 5.796875 -2.28125 5.96875 -2.664062 5.96875 -3.125 L 5.96875 -4.046875 C 5.875 -3.984375 5.726562 -3.925781 5.53125 -3.875 C 5.332031 -3.820312 5.117188 -3.773438 4.890625 -3.734375 C 4.660156 -3.703125 4.457031 -3.675781 4.28125 -3.65625 C 3.851562 -3.59375 3.507812 -3.472656 3.25 -3.296875 C 3 -3.117188 2.875 -2.859375 2.875 -2.515625 C 2.875 -2.179688 2.992188 -1.925781 3.234375 -1.75 C 3.472656 -1.582031 3.773438 -1.5 4.140625 -1.5 Z M 4.140625 -1.5 "/></g></g></g><g fill="#ffffff" fill-opacity="1"><g transform="translate(241.86451, 162.099995)"><g><path d="M 0.96875 0 L 0.96875 -8.734375 L 3.390625 -8.734375 L 3.390625 0 Z M 2.1875 -9.859375 C 1.832031 -9.859375 1.523438 -9.976562 1.265625 -10.21875 C 1.003906 -10.457031 0.875 -10.742188 0.875 -11.078125 C 0.875 -11.410156 1.003906 -11.695312 1.265625 -11.9375 C 1.523438 -12.175781 1.832031 -12.296875 2.1875 -12.296875 C 2.550781 -12.296875 2.859375 -12.175781 3.109375 -11.9375 C 3.367188 -11.695312 3.5 -11.410156 3.5 -11.078125 C 3.5 -10.742188 3.367188 -10.457031 3.109375 -10.21875 C 2.859375 -9.976562 2.550781 -9.859375 2.1875 -9.859375 Z M 2.1875 -9.859375 "/></g></g></g><g fill="#ffffff" fill-opacity="1"><g transform="translate(246.215679, 162.099995)"><g><path d="M 3.390625 -5.046875 L 3.390625 0 L 0.96875 0 L 0.96875 -8.734375 L 3.265625 -8.734375 L 3.265625 -7.1875 L 3.375 -7.1875 C 3.570312 -7.695312 3.894531 -8.097656 4.34375 -8.390625 C 4.800781 -8.691406 5.351562 -8.84375 6 -8.84375 C 6.90625 -8.84375 7.632812 -8.546875 8.1875 -7.953125 C 8.738281 -7.367188 9.015625 -6.570312 9.015625 -5.5625 L 9.015625 0 L 6.59375 0 L 6.59375 -5.125 C 6.59375 -5.65625 6.453125 -6.070312 6.171875 -6.375 C 5.898438 -6.675781 5.523438 -6.828125 5.046875 -6.828125 C 4.554688 -6.828125 4.15625 -6.671875 3.84375 -6.359375 C 3.539062 -6.046875 3.390625 -5.609375 3.390625 -5.046875 Z M 3.390625 -5.046875 "/></g></g></g><g fill="#ffffff" fill-opacity="1"><g transform="translate(256.162024, 162.099995)"><g><path d="M 5.609375 -8.734375 L 5.609375 -6.90625 L 3.96875 -6.90625 L 3.96875 -2.6875 C 3.96875 -2.351562 4.039062 -2.125 4.1875 -2 C 4.34375 -1.882812 4.539062 -1.828125 4.78125 -1.828125 C 4.894531 -1.828125 5.007812 -1.835938 5.125 -1.859375 C 5.238281 -1.878906 5.328125 -1.894531 5.390625 -1.90625 L 5.765625 -0.109375 C 5.640625 -0.0664062 5.46875 -0.0195312 5.25 0.03125 C 5.03125 0.0820312 4.765625 0.113281 4.453125 0.125 C 3.578125 0.15625 2.875 -0.0351562 2.34375 -0.453125 C 1.8125 -0.867188 1.546875 -1.503906 1.546875 -2.359375 L 1.546875 -6.90625 L 0.359375 -6.90625 L 0.359375 -8.734375 L 1.546875 -8.734375 L 1.546875 -10.8125 L 3.96875 -10.8125 L 3.96875 -8.734375 Z M 5.609375 -8.734375 "/></g></g></g><g fill="#ffffff" fill-opacity="1"><g transform="translate(262.37636, 162.099995)"><g><path d="M 0.96875 0 L 0.96875 -8.734375 L 3.390625 -8.734375 L 3.390625 0 Z M 2.1875 -9.859375 C 1.832031 -9.859375 1.523438 -9.976562 1.265625 -10.21875 C 1.003906 -10.457031 0.875 -10.742188 0.875 -11.078125 C 0.875 -11.410156 1.003906 -11.695312 1.265625 -11.9375 C 1.523438 -12.175781 1.832031 -12.296875 2.1875 -12.296875 C 2.550781 -12.296875 2.859375 -12.175781 3.109375 -11.9375 C 3.367188 -11.695312 3.5 -11.410156 3.5 -11.078125 C 3.5 -10.742188 3.367188 -10.457031 3.109375 -10.21875 C 2.859375 -9.976562 2.550781 -9.859375 2.1875 -9.859375 Z M 2.1875 -9.859375 "/></g></g></g><g fill="#ffffff" fill-opacity="1"><g transform="translate(266.72753, 162.099995)"><g><path d="M 3.390625 -5.046875 L 3.390625 0 L 0.96875 0 L 0.96875 -8.734375 L 3.265625 -8.734375 L 3.265625 -7.1875 L 3.375 -7.1875 C 3.570312 -7.695312 3.894531 -8.097656 4.34375 -8.390625 C 4.800781 -8.691406 5.351562 -8.84375 6 -8.84375 C 6.90625 -8.84375 7.632812 -8.546875 8.1875 -7.953125 C 8.738281 -7.367188 9.015625 -6.570312 9.015625 -5.5625 L 9.015625 0 L 6.59375 0 L 6.59375 -5.125 C 6.59375 -5.65625 6.453125 -6.070312 6.171875 -6.375 C 5.898438 -6.675781 5.523438 -6.828125 5.046875 -6.828125 C 4.554688 -6.828125 4.15625 -6.671875 3.84375 -6.359375 C 3.539062 -6.046875 3.390625 -5.609375 3.390625 -5.046875 Z M 3.390625 -5.046875 "/></g></g></g><g fill="#ffffff" fill-opacity="1"><g transform="translate(276.673875, 162.099995)"><g><path d="M 4.890625 3.390625 C 3.722656 3.390625 2.800781 3.160156 2.125 2.703125 C 1.457031 2.242188 1.050781 1.679688 0.90625 1.015625 L 3.140625 0.71875 C 3.242188 0.957031 3.4375 1.171875 3.71875 1.359375 C 4.007812 1.554688 4.421875 1.65625 4.953125 1.65625 C 5.484375 1.65625 5.914062 1.53125 6.25 1.28125 C 6.59375 1.03125 6.765625 0.617188 6.765625 0.046875 L 6.765625 -1.546875 L 6.671875 -1.546875 C 6.515625 -1.179688 6.234375 -0.851562 5.828125 -0.5625 C 5.429688 -0.269531 4.882812 -0.125 4.1875 -0.125 C 3.53125 -0.125 2.929688 -0.273438 2.390625 -0.578125 C 1.859375 -0.890625 1.429688 -1.359375 1.109375 -1.984375 C 0.796875 -2.617188 0.640625 -3.414062 0.640625 -4.375 C 0.640625 -5.375 0.800781 -6.203125 1.125 -6.859375 C 1.445312 -7.515625 1.875 -8.007812 2.40625 -8.34375 C 2.945312 -8.675781 3.535156 -8.84375 4.171875 -8.84375 C 4.660156 -8.84375 5.066406 -8.757812 5.390625 -8.59375 C 5.722656 -8.425781 5.992188 -8.222656 6.203125 -7.984375 C 6.410156 -7.742188 6.566406 -7.503906 6.671875 -7.265625 L 6.765625 -7.265625 L 6.765625 -8.734375 L 9.171875 -8.734375 L 9.171875 0.078125 C 9.171875 0.804688 8.984375 1.414062 8.609375 1.90625 C 8.242188 2.394531 7.738281 2.765625 7.09375 3.015625 C 6.457031 3.265625 5.722656 3.390625 4.890625 3.390625 Z M 4.953125 -1.9375 C 5.535156 -1.9375 5.984375 -2.148438 6.296875 -2.578125 C 6.617188 -3.015625 6.78125 -3.617188 6.78125 -4.390625 C 6.78125 -5.160156 6.617188 -5.773438 6.296875 -6.234375 C 5.984375 -6.691406 5.535156 -6.921875 4.953125 -6.921875 C 4.347656 -6.921875 3.890625 -6.679688 3.578125 -6.203125 C 3.265625 -5.734375 3.109375 -5.128906 3.109375 -4.390625 C 3.109375 -3.640625 3.265625 -3.039062 3.578125 -2.59375 C 3.898438 -2.15625 4.359375 -1.9375 4.953125 -1.9375 Z M 4.953125 -1.9375 "/></g></g></g><g clip-path="url(#2a3ab12327)"><path fill="#000000" d="M 102.925781 213.546875 L 161.746094 213.546875 L 161.746094 331.199219 L 102.925781 331.199219 Z M 102.925781 213.546875 " fill-opacity="1" fill-rule="nonzero"/></g><g clip-path="url(#93ddee3a90)"><path fill="#000000" d="M 395.945312 294.726562 C 394.773438 294.5625 393.703125 294.140625 392.734375 293.460938 C 391.765625 292.78125 391.003906 291.914062 390.453125 290.867188 C 389.746094 289.492188 389.492188 288.039062 389.6875 286.507812 C 389.652344 285.566406 389.527344 284.636719 389.3125 283.71875 C 389.097656 282.800781 388.796875 281.914062 388.410156 281.054688 C 388.023438 280.195312 387.558594 279.378906 387.015625 278.609375 C 386.472656 277.839844 385.863281 277.128906 385.183594 276.476562 C 384.503906 275.824219 383.769531 275.242188 382.980469 274.730469 C 382.1875 274.21875 381.355469 273.789062 380.480469 273.4375 C 379.609375 273.085938 378.707031 272.820312 377.785156 272.640625 C 376.859375 272.460938 375.925781 272.371094 374.984375 272.375 C 373.175781 272.371094 371.433594 272.695312 369.746094 273.34375 C 368.0625 273.996094 366.550781 274.925781 365.210938 276.136719 C 364.429688 276.820312 363.730469 277.574219 363.113281 278.40625 C 362.496094 279.238281 361.972656 280.125 361.546875 281.070312 C 361.121094 282.015625 360.800781 282.992188 360.585938 284.007812 C 360.375 285.019531 360.269531 286.042969 360.277344 287.082031 C 360.285156 288.773438 360.59375 290.40625 361.203125 291.984375 C 361.308594 292.261719 361.394531 292.542969 361.464844 292.832031 C 361.535156 293.121094 361.589844 293.410156 361.625 293.707031 C 361.660156 294 361.675781 294.296875 361.675781 294.589844 C 361.675781 294.886719 361.660156 295.183594 361.621094 295.476562 C 361.585938 295.769531 361.53125 296.0625 361.460938 296.351562 C 361.390625 296.636719 361.300781 296.917969 361.195312 297.195312 C 361.089844 297.472656 360.96875 297.742188 360.832031 298.003906 C 360.691406 298.269531 360.539062 298.519531 360.371094 298.765625 C 360.203125 299.007812 360.019531 299.242188 359.824219 299.460938 C 359.625 299.683594 359.417969 299.894531 359.195312 300.089844 C 358.972656 300.285156 358.742188 300.46875 358.496094 300.636719 C 358.253906 300.804688 358 300.957031 357.738281 301.09375 C 357.472656 301.230469 357.203125 301.351562 356.925781 301.457031 C 356.648438 301.5625 356.367188 301.652344 356.082031 301.722656 C 355.792969 301.792969 355.5 301.84375 355.207031 301.882812 C 354.914062 301.917969 354.617188 301.933594 354.320312 301.933594 C 353.960938 301.933594 352.851562 301.832031 352.527344 301.78125 C 351.5625 301.792969 350.605469 301.898438 349.660156 302.101562 C 348.714844 302.300781 347.800781 302.59375 346.914062 302.976562 C 346.027344 303.355469 345.183594 303.820312 344.386719 304.371094 C 343.59375 304.917969 342.859375 305.535156 342.183594 306.230469 C 341.511719 306.921875 340.910156 307.671875 340.386719 308.484375 C 339.859375 309.292969 339.417969 310.148438 339.058594 311.042969 C 338.703125 311.941406 338.4375 312.863281 338.261719 313.816406 C 338.085938 314.765625 338.003906 315.722656 338.015625 316.6875 C 338.03125 317.65625 338.136719 318.609375 338.335938 319.554688 C 338.539062 320.5 338.832031 321.414062 339.210938 322.304688 C 339.59375 323.191406 340.058594 324.03125 340.605469 324.828125 C 341.152344 325.625 341.773438 326.359375 342.464844 327.03125 C 343.15625 327.707031 343.910156 328.304688 344.71875 328.832031 C 345.527344 329.359375 346.382812 329.800781 347.28125 330.15625 C 348.175781 330.515625 349.101562 330.78125 350.050781 330.957031 C 351 331.132812 351.957031 331.214844 352.925781 331.199219 L 393.367188 331.199219 C 394.515625 331.203125 395.65625 331.097656 396.789062 330.886719 C 397.917969 330.675781 399.019531 330.359375 400.089844 329.9375 C 401.164062 329.519531 402.183594 329.003906 403.160156 328.390625 C 404.132812 327.777344 405.042969 327.082031 405.886719 326.296875 C 406.726562 325.515625 407.488281 324.660156 408.171875 323.734375 C 408.851562 322.804688 409.441406 321.824219 409.9375 320.785156 C 410.433594 319.746094 410.832031 318.671875 411.125 317.558594 C 411.417969 316.449219 411.605469 315.316406 411.6875 314.167969 C 411.769531 313.023438 411.742188 311.875 411.609375 310.734375 C 411.472656 309.589844 411.234375 308.472656 410.886719 307.375 C 410.542969 306.277344 410.097656 305.21875 409.554688 304.207031 C 409.007812 303.191406 408.375 302.238281 407.652344 301.34375 C 406.925781 300.449219 406.125 299.632812 405.246094 298.886719 C 404.367188 298.144531 403.429688 297.488281 402.425781 296.925781 C 401.425781 296.359375 400.378906 295.890625 399.289062 295.519531 C 398.199219 295.152344 397.085938 294.886719 395.945312 294.726562 Z M 395.945312 294.726562 " fill-opacity="1" fill-rule="nonzero"/></g><path fill="#000000" d="M 352.925781 22.359375 L 323.511719 22.359375 L 323.511719 73.765625 L 352.925781 97.664062 Z M 352.925781 22.359375 " fill-opacity="1" fill-rule="nonzero"/><path fill="#000000" d="M 28.660156 165.75 C 30.128906 165.871094 31.5625 165.695312 32.957031 165.222656 C 34.355469 164.746094 35.597656 164.015625 36.6875 163.023438 L 205.867188 26.285156 L 374.820312 162.808594 C 375.367188 163.300781 375.957031 163.734375 376.585938 164.113281 C 377.21875 164.488281 377.878906 164.800781 378.574219 165.046875 C 379.265625 165.292969 379.976562 165.46875 380.703125 165.578125 C 381.429688 165.683594 382.160156 165.714844 382.894531 165.679688 C 383.628906 165.640625 384.351562 165.53125 385.066406 165.351562 C 385.777344 165.171875 386.464844 164.921875 387.128906 164.605469 C 387.792969 164.289062 388.417969 163.910156 389.007812 163.472656 C 389.597656 163.03125 390.136719 162.539062 390.628906 161.992188 C 391.601562 160.894531 392.324219 159.648438 392.796875 158.261719 C 393.269531 156.875 393.460938 155.449219 393.367188 153.984375 C 393.277344 152.527344 392.910156 151.144531 392.265625 149.832031 C 391.621094 148.523438 390.746094 147.390625 389.644531 146.433594 L 213.367188 3.242188 C 212.324219 2.308594 211.152344 1.585938 209.851562 1.082031 C 208.546875 0.574219 207.199219 0.3125 205.800781 0.300781 C 204.46875 0.304688 203.179688 0.542969 201.933594 1.015625 C 200.691406 1.488281 199.570312 2.167969 198.570312 3.050781 L 21.894531 146.632812 C 20.851562 147.578125 20.023438 148.691406 19.414062 149.960938 C 18.804688 151.234375 18.460938 152.574219 18.378906 153.984375 C 18.28125 155.453125 18.46875 156.878906 18.941406 158.273438 C 19.414062 159.664062 20.136719 160.910156 21.109375 162.015625 C 22.066406 163.121094 23.199219 163.996094 24.507812 164.644531 C 25.816406 165.292969 27.203125 165.660156 28.660156 165.75 Z M 28.660156 165.75 " fill-opacity="1" fill-rule="nonzero"/><path fill="#000000" d="M 272.042969 213.546875 L 308.808594 213.546875 L 308.808594 272.375 L 272.042969 272.375 Z M 272.042969 213.546875 " fill-opacity="1" fill-rule="nonzero"/><path fill="#000000" d="M 220.570312 213.546875 L 257.335938 213.546875 L 257.335938 272.375 L 220.570312 272.375 Z M 220.570312 213.546875 " fill-opacity="1" fill-rule="nonzero"/><g clip-path="url(#fb380aac4f)"><path fill="#000000" d="M 345.570312 288.007812 C 345.570312 287.699219 345.570312 287.390625 345.570312 287.082031 C 345.578125 285.324219 345.742188 283.582031 346.0625 281.851562 C 346.386719 280.125 346.859375 278.441406 347.488281 276.800781 C 348.117188 275.160156 348.886719 273.585938 349.800781 272.085938 C 350.714844 270.585938 351.753906 269.179688 352.925781 267.867188 L 352.925781 164.03125 L 205.867188 45.199219 L 58.808594 164.035156 L 58.808594 331.199219 L 88.21875 331.199219 L 88.21875 206.195312 C 88.21875 205.710938 88.265625 205.234375 88.359375 204.757812 C 88.453125 204.285156 88.59375 203.824219 88.777344 203.378906 C 88.964844 202.933594 89.191406 202.507812 89.457031 202.109375 C 89.726562 201.707031 90.03125 201.335938 90.371094 200.992188 C 90.714844 200.652344 91.085938 200.347656 91.488281 200.078125 C 91.886719 199.8125 92.3125 199.585938 92.757812 199.398438 C 93.203125 199.214844 93.664062 199.074219 94.136719 198.980469 C 94.609375 198.886719 95.089844 198.839844 95.570312 198.839844 L 169.101562 198.839844 C 169.582031 198.839844 170.0625 198.886719 170.535156 198.980469 C 171.007812 199.074219 171.46875 199.214844 171.914062 199.398438 C 172.359375 199.585938 172.785156 199.8125 173.1875 200.078125 C 173.585938 200.347656 173.957031 200.652344 174.300781 200.992188 C 174.640625 201.335938 174.945312 201.707031 175.214844 202.109375 C 175.484375 202.507812 175.710938 202.933594 175.894531 203.378906 C 176.078125 203.824219 176.21875 204.285156 176.3125 204.757812 C 176.40625 205.234375 176.453125 205.710938 176.453125 206.195312 L 176.453125 331.199219 L 327.601562 331.199219 C 326.277344 328.976562 325.269531 326.613281 324.574219 324.121094 C 323.882812 321.625 323.527344 319.082031 323.511719 316.492188 C 323.515625 314.875 323.648438 313.265625 323.914062 311.671875 C 324.179688 310.074219 324.578125 308.507812 325.101562 306.976562 C 325.625 305.445312 326.273438 303.96875 327.039062 302.542969 C 327.808594 301.117188 328.6875 299.765625 329.679688 298.484375 C 330.671875 297.203125 331.761719 296.015625 332.949219 294.914062 C 334.132812 293.8125 335.402344 292.816406 336.753906 291.925781 C 338.105469 291.035156 339.523438 290.261719 341.003906 289.601562 C 342.480469 288.945312 344.003906 288.414062 345.570312 288.007812 Z M 323.511719 279.726562 C 323.511719 280.210938 323.464844 280.6875 323.371094 281.160156 C 323.277344 281.636719 323.136719 282.09375 322.953125 282.542969 C 322.769531 282.988281 322.542969 283.410156 322.273438 283.8125 C 322.003906 284.214844 321.699219 284.585938 321.359375 284.925781 C 321.019531 285.269531 320.644531 285.574219 320.246094 285.839844 C 319.84375 286.109375 319.417969 286.335938 318.972656 286.519531 C 318.527344 286.707031 318.066406 286.84375 317.59375 286.9375 C 317.121094 287.035156 316.640625 287.082031 316.160156 287.082031 L 213.21875 287.082031 C 212.734375 287.082031 212.257812 287.035156 211.785156 286.9375 C 211.3125 286.84375 210.851562 286.707031 210.40625 286.519531 C 209.957031 286.335938 209.535156 286.109375 209.132812 285.839844 C 208.730469 285.574219 208.359375 285.269531 208.019531 284.925781 C 207.679688 284.585938 207.375 284.214844 207.105469 283.8125 C 206.835938 283.410156 206.609375 282.988281 206.425781 282.539062 C 206.242188 282.09375 206.101562 281.636719 206.007812 281.160156 C 205.914062 280.6875 205.867188 280.210938 205.867188 279.726562 L 205.867188 206.195312 C 205.867188 205.710938 205.914062 205.234375 206.007812 204.757812 C 206.101562 204.285156 206.242188 203.824219 206.425781 203.378906 C 206.609375 202.933594 206.835938 202.507812 207.105469 202.109375 C 207.375 201.707031 207.679688 201.335938 208.019531 200.992188 C 208.359375 200.652344 208.730469 200.347656 209.132812 200.078125 C 209.535156 199.8125 209.957031 199.585938 210.40625 199.398438 C 210.851562 199.214844 211.3125 199.074219 211.785156 198.980469 C 212.257812 198.886719 212.734375 198.839844 213.21875 198.839844 L 316.160156 198.839844 C 316.640625 198.839844 317.121094 198.886719 317.59375 198.980469 C 318.066406 199.074219 318.527344 199.214844 318.972656 199.398438 C 319.417969 199.585938 319.84375 199.8125 320.246094 200.078125 C 320.644531 200.347656 321.019531 200.652344 321.359375 200.992188 C 321.699219 201.335938 322.003906 201.707031 322.273438 202.109375 C 322.542969 202.507812 322.769531 202.933594 322.953125 203.378906 C 323.136719 203.824219 323.277344 204.285156 323.371094 204.757812 C 323.464844 205.234375 323.511719 205.710938 323.511719 206.195312 Z M 323.511719 279.726562 " fill-opacity="1" fill-rule="nonzero"/></g><g clip-path="url(#8a1d76a519)"><path fill="#000000" d="M 22.042969 287.082031 C 22.046875 288.773438 22.355469 290.40625 22.96875 291.984375 C 23.074219 292.261719 23.160156 292.542969 23.230469 292.832031 C 23.300781 293.121094 23.355469 293.410156 23.390625 293.707031 C 23.425781 294 23.441406 294.296875 23.441406 294.589844 C 23.441406 294.886719 23.421875 295.183594 23.386719 295.476562 C 23.351562 295.769531 23.296875 296.0625 23.226562 296.351562 C 23.15625 296.636719 23.066406 296.917969 22.960938 297.195312 C 22.855469 297.472656 22.734375 297.742188 22.597656 298.003906 C 22.457031 298.269531 22.304688 298.519531 22.136719 298.765625 C 21.96875 299.007812 21.785156 299.242188 21.589844 299.460938 C 21.390625 299.683594 21.183594 299.894531 20.960938 300.089844 C 20.738281 300.285156 20.503906 300.46875 20.261719 300.636719 C 20.015625 300.804688 19.765625 300.957031 19.5 301.09375 C 19.238281 301.230469 18.96875 301.351562 18.691406 301.457031 C 18.414062 301.5625 18.132812 301.652344 17.84375 301.722656 C 17.558594 301.792969 17.265625 301.84375 16.972656 301.882812 C 16.679688 301.917969 16.382812 301.933594 16.085938 301.933594 C 15.726562 301.933594 14.617188 301.832031 14.292969 301.78125 C 13.328125 301.792969 12.371094 301.898438 11.425781 302.101562 C 10.480469 302.300781 9.566406 302.59375 8.679688 302.976562 C 7.789062 303.355469 6.949219 303.820312 6.152344 304.371094 C 5.359375 304.917969 4.621094 305.535156 3.949219 306.230469 C 3.273438 306.921875 2.675781 307.671875 2.148438 308.484375 C 1.625 309.292969 1.183594 310.148438 0.824219 311.042969 C 0.46875 311.941406 0.199219 312.863281 0.0234375 313.816406 C -0.152344 314.765625 -0.230469 315.722656 -0.21875 316.6875 C -0.207031 317.65625 -0.0976562 318.609375 0.101562 319.554688 C 0.304688 320.5 0.59375 321.414062 0.976562 322.304688 C 1.359375 323.191406 1.824219 324.03125 2.371094 324.828125 C 2.917969 325.625 3.539062 326.359375 4.230469 327.03125 C 4.921875 327.707031 5.671875 328.304688 6.484375 328.832031 C 7.292969 329.359375 8.148438 329.800781 9.046875 330.15625 C 9.941406 330.515625 10.867188 330.78125 11.816406 330.957031 C 12.765625 331.132812 13.722656 331.214844 14.6875 331.199219 L 44.101562 331.199219 L 44.101562 274.402344 C 41.835938 273.058594 39.382812 272.382812 36.746094 272.375 C 35.78125 272.375 34.824219 272.46875 33.878906 272.65625 C 32.933594 272.84375 32.011719 273.125 31.121094 273.492188 C 30.226562 273.863281 29.378906 274.316406 28.578125 274.851562 C 27.773438 275.386719 27.03125 276 26.347656 276.679688 C 25.667969 277.363281 25.058594 278.105469 24.519531 278.910156 C 23.984375 279.710938 23.53125 280.558594 23.160156 281.453125 C 22.792969 282.34375 22.511719 283.265625 22.324219 284.210938 C 22.136719 285.160156 22.042969 286.113281 22.042969 287.082031 Z M 22.042969 287.082031 " fill-opacity="1" fill-rule="nonzero"/></g></svg>