<svg xmlns="http://www.w3.org/2000/svg" xmlns:xlink="http://www.w3.org/1999/xlink" width="475" zoomAndPan="magnify" viewBox="0 0 356.25 286.5" height="382" preserveAspectRatio="xMidYMid meet" version="1.0"><defs><clipPath id="27f2421b74"><path d="M 1.03125 234 L 39 234 L 39 285 L 1.03125 285 Z M 1.03125 234 " clip-rule="nonzero"/></clipPath></defs><path fill="#ffffff" d="M 89.226562 183.949219 L 139.632812 183.949219 L 139.632812 284.761719 L 89.226562 284.761719 Z M 89.226562 183.949219 " fill-opacity="1" fill-rule="nonzero"/><path fill="#ffffff" d="M 340.3125 253.507812 C 339.308594 253.367188 338.390625 253.007812 337.5625 252.425781 C 336.730469 251.839844 336.078125 251.097656 335.605469 250.203125 C 335 249.023438 334.785156 247.777344 334.953125 246.464844 C 334.921875 245.660156 334.8125 244.863281 334.628906 244.078125 C 334.441406 243.289062 334.1875 242.53125 333.855469 241.792969 C 333.523438 241.058594 333.125 240.359375 332.660156 239.699219 C 332.195312 239.039062 331.671875 238.429688 331.089844 237.871094 C 330.507812 237.3125 329.878906 236.8125 329.203125 236.375 C 328.523438 235.9375 327.8125 235.566406 327.0625 235.265625 C 326.3125 234.964844 325.542969 234.738281 324.75 234.582031 C 323.957031 234.429688 323.15625 234.355469 322.351562 234.355469 C 320.804688 234.355469 319.308594 234.632812 317.863281 235.1875 C 316.417969 235.746094 315.125 236.542969 313.976562 237.582031 C 312.621094 238.761719 311.574219 240.167969 310.835938 241.804688 C 310.097656 243.445312 309.738281 245.160156 309.75 246.957031 C 309.753906 248.40625 310.019531 249.808594 310.542969 251.160156 C 310.632812 251.398438 310.707031 251.640625 310.769531 251.886719 C 310.828125 252.132812 310.875 252.382812 310.902344 252.632812 C 310.933594 252.886719 310.949219 253.136719 310.949219 253.390625 C 310.949219 253.644531 310.933594 253.898438 310.902344 254.152344 C 310.871094 254.402344 310.824219 254.652344 310.761719 254.898438 C 310.703125 255.144531 310.625 255.386719 310.535156 255.625 C 310.445312 255.863281 310.339844 256.09375 310.222656 256.316406 C 310.105469 256.542969 309.972656 256.757812 309.828125 256.96875 C 309.683594 257.175781 309.527344 257.375 309.359375 257.566406 C 309.191406 257.753906 309.011719 257.933594 308.820312 258.101562 C 308.632812 258.269531 308.433594 258.425781 308.222656 258.570312 C 308.015625 258.714844 307.796875 258.847656 307.570312 258.964844 C 307.347656 259.082031 307.117188 259.1875 306.878906 259.277344 C 306.640625 259.367188 306.398438 259.441406 306.152344 259.5 C 305.90625 259.5625 305.65625 259.609375 305.40625 259.636719 C 305.152344 259.667969 304.898438 259.683594 304.644531 259.683594 C 304.335938 259.683594 303.386719 259.59375 303.109375 259.550781 C 302.28125 259.5625 301.460938 259.65625 300.652344 259.828125 C 299.84375 260 299.058594 260.25 298.296875 260.574219 C 297.539062 260.902344 296.816406 261.300781 296.132812 261.769531 C 295.453125 262.238281 294.824219 262.769531 294.246094 263.363281 C 293.667969 263.957031 293.152344 264.601562 292.703125 265.292969 C 292.253906 265.988281 291.875 266.722656 291.566406 267.488281 C 291.261719 268.257812 291.035156 269.050781 290.882812 269.863281 C 290.730469 270.679688 290.664062 271.5 290.671875 272.324219 C 290.683594 273.152344 290.777344 273.972656 290.949219 274.78125 C 291.121094 275.589844 291.371094 276.375 291.699219 277.136719 C 292.023438 277.898438 292.421875 278.617188 292.890625 279.300781 C 293.363281 279.980469 293.894531 280.613281 294.484375 281.1875 C 295.078125 281.765625 295.722656 282.28125 296.417969 282.730469 C 297.113281 283.179688 297.84375 283.558594 298.613281 283.867188 C 299.378906 284.171875 300.171875 284.402344 300.984375 284.550781 C 301.800781 284.703125 302.621094 284.773438 303.449219 284.761719 L 338.101562 284.761719 C 339.085938 284.761719 340.066406 284.671875 341.035156 284.492188 C 342.003906 284.308594 342.945312 284.039062 343.863281 283.679688 C 344.78125 283.320312 345.660156 282.878906 346.492188 282.355469 C 347.328125 281.828125 348.105469 281.230469 348.828125 280.558594 C 349.550781 279.890625 350.203125 279.15625 350.789062 278.363281 C 351.371094 277.566406 351.878906 276.726562 352.304688 275.835938 C 352.730469 274.945312 353.066406 274.027344 353.320312 273.074219 C 353.570312 272.121094 353.734375 271.152344 353.800781 270.167969 C 353.871094 269.183594 353.847656 268.203125 353.734375 267.222656 C 353.617188 266.246094 353.414062 265.285156 353.117188 264.34375 C 352.820312 263.402344 352.4375 262.5 351.972656 261.632812 C 351.507812 260.761719 350.964844 259.945312 350.34375 259.179688 C 349.722656 258.414062 349.035156 257.710938 348.28125 257.074219 C 347.53125 256.4375 346.726562 255.875 345.867188 255.390625 C 345.007812 254.90625 344.113281 254.503906 343.179688 254.1875 C 342.246094 253.871094 341.289062 253.644531 340.3125 253.507812 Z M 340.3125 253.507812 " fill-opacity="1" fill-rule="nonzero"/><path fill="#ffffff" d="M 303.449219 20.132812 L 278.246094 20.132812 L 278.246094 64.179688 L 303.449219 84.65625 Z M 303.449219 20.132812 " fill-opacity="1" fill-rule="nonzero"/><path fill="#ffffff" d="M 25.589844 142.996094 C 26.847656 143.101562 28.078125 142.949219 29.273438 142.542969 C 30.46875 142.136719 31.535156 141.507812 32.46875 140.65625 L 177.433594 23.496094 L 322.210938 140.476562 C 322.679688 140.898438 323.183594 141.269531 323.722656 141.59375 C 324.265625 141.917969 324.832031 142.183594 325.425781 142.394531 C 326.019531 142.605469 326.628906 142.757812 327.25 142.847656 C 327.875 142.9375 328.5 142.96875 329.128906 142.933594 C 329.757812 142.902344 330.378906 142.808594 330.988281 142.652344 C 331.601562 142.5 332.191406 142.285156 332.757812 142.015625 C 333.328125 141.746094 333.863281 141.421875 334.367188 141.042969 C 334.875 140.667969 335.335938 140.246094 335.757812 139.777344 C 336.589844 138.832031 337.207031 137.769531 337.613281 136.578125 C 338.019531 135.390625 338.183594 134.167969 338.101562 132.914062 C 338.027344 131.664062 337.710938 130.480469 337.160156 129.359375 C 336.605469 128.234375 335.859375 127.265625 334.914062 126.445312 L 183.863281 3.75 C 182.96875 2.953125 181.964844 2.335938 180.851562 1.902344 C 179.734375 1.464844 178.578125 1.242188 177.378906 1.230469 C 176.238281 1.234375 175.132812 1.4375 174.066406 1.84375 C 173 2.25 172.039062 2.832031 171.183594 3.585938 L 19.792969 126.613281 C 18.898438 127.425781 18.1875 128.378906 17.667969 129.46875 C 17.144531 130.558594 16.851562 131.707031 16.78125 132.914062 C 16.695312 134.171875 16.855469 135.394531 17.261719 136.589844 C 17.667969 137.78125 18.285156 138.851562 19.117188 139.796875 C 19.9375 140.742188 20.910156 141.492188 22.03125 142.046875 C 23.152344 142.601562 24.339844 142.917969 25.589844 142.996094 Z M 25.589844 142.996094 " fill-opacity="1" fill-rule="nonzero"/><path fill="#ffffff" d="M 234.140625 183.949219 L 265.644531 183.949219 L 265.644531 234.355469 L 234.140625 234.355469 Z M 234.140625 183.949219 " fill-opacity="1" fill-rule="nonzero"/><path fill="#ffffff" d="M 190.035156 183.949219 L 221.539062 183.949219 L 221.539062 234.355469 L 190.035156 234.355469 Z M 190.035156 183.949219 " fill-opacity="1" fill-rule="nonzero"/><path fill="#ffffff" d="M 297.148438 247.75 C 297.148438 247.484375 297.148438 247.222656 297.148438 246.957031 C 297.15625 243.921875 297.703125 240.984375 298.789062 238.148438 C 299.875 235.3125 301.429688 232.761719 303.449219 230.492188 L 303.449219 141.519531 L 177.433594 39.703125 L 51.421875 141.527344 L 51.421875 284.761719 L 76.625 284.761719 L 76.625 177.648438 C 76.625 177.234375 76.664062 176.824219 76.746094 176.421875 C 76.828125 176.015625 76.945312 175.621094 77.105469 175.238281 C 77.261719 174.855469 77.457031 174.492188 77.6875 174.148438 C 77.917969 173.804688 78.175781 173.488281 78.46875 173.195312 C 78.761719 172.902344 79.082031 172.640625 79.425781 172.410156 C 79.769531 172.179688 80.132812 171.988281 80.515625 171.828125 C 80.894531 171.671875 81.289062 171.550781 81.695312 171.46875 C 82.101562 171.390625 82.511719 171.347656 82.925781 171.347656 L 145.933594 171.347656 C 146.34375 171.347656 146.753906 171.390625 147.160156 171.46875 C 147.566406 171.550781 147.960938 171.671875 148.34375 171.828125 C 148.726562 171.988281 149.089844 172.179688 149.433594 172.410156 C 149.777344 172.640625 150.09375 172.902344 150.386719 173.195312 C 150.679688 173.488281 150.941406 173.804688 151.171875 174.148438 C 151.402344 174.492188 151.59375 174.855469 151.753906 175.238281 C 151.910156 175.621094 152.03125 176.015625 152.113281 176.421875 C 152.191406 176.824219 152.234375 177.234375 152.234375 177.648438 L 152.234375 284.761719 L 281.75 284.761719 C 280.613281 282.851562 279.75 280.832031 279.15625 278.695312 C 278.5625 276.554688 278.257812 274.378906 278.246094 272.160156 C 278.246094 270.773438 278.363281 269.394531 278.589844 268.027344 C 278.820312 266.65625 279.15625 265.316406 279.605469 264.003906 C 280.054688 262.691406 280.609375 261.425781 281.269531 260.203125 C 281.925781 258.984375 282.679688 257.824219 283.53125 256.726562 C 284.378906 255.632812 285.3125 254.613281 286.332031 253.667969 C 287.347656 252.726562 288.433594 251.871094 289.59375 251.109375 C 290.75 250.34375 291.964844 249.683594 293.230469 249.117188 C 294.5 248.554688 295.804688 248.097656 297.148438 247.75 Z M 278.246094 240.65625 C 278.246094 241.070312 278.207031 241.480469 278.125 241.886719 C 278.042969 242.289062 277.925781 242.683594 277.765625 243.066406 C 277.609375 243.449219 277.414062 243.8125 277.183594 244.15625 C 276.953125 244.5 276.691406 244.820312 276.398438 245.109375 C 276.109375 245.402344 275.789062 245.664062 275.445312 245.894531 C 275.101562 246.125 274.738281 246.320312 274.355469 246.476562 C 273.972656 246.636719 273.578125 246.753906 273.175781 246.835938 C 272.769531 246.917969 272.359375 246.957031 271.945312 246.957031 L 183.734375 246.957031 C 183.320312 246.957031 182.914062 246.917969 182.507812 246.835938 C 182.101562 246.753906 181.707031 246.636719 181.324219 246.476562 C 180.941406 246.320312 180.578125 246.125 180.234375 245.894531 C 179.890625 245.664062 179.574219 245.402344 179.28125 245.109375 C 178.988281 244.820312 178.726562 244.5 178.496094 244.15625 C 178.265625 243.8125 178.074219 243.449219 177.914062 243.066406 C 177.757812 242.683594 177.636719 242.289062 177.554688 241.886719 C 177.476562 241.480469 177.433594 241.070312 177.433594 240.65625 L 177.433594 177.648438 C 177.433594 177.234375 177.476562 176.824219 177.554688 176.421875 C 177.636719 176.015625 177.757812 175.621094 177.914062 175.238281 C 178.074219 174.855469 178.265625 174.492188 178.496094 174.148438 C 178.726562 173.804688 178.988281 173.488281 179.28125 173.195312 C 179.574219 172.902344 179.890625 172.640625 180.234375 172.410156 C 180.578125 172.179688 180.941406 171.988281 181.324219 171.828125 C 181.707031 171.671875 182.101562 171.550781 182.507812 171.46875 C 182.914062 171.390625 183.320312 171.347656 183.734375 171.347656 L 271.945312 171.347656 C 272.359375 171.347656 272.769531 171.390625 273.175781 171.46875 C 273.578125 171.550781 273.972656 171.671875 274.355469 171.828125 C 274.738281 171.988281 275.101562 172.179688 275.445312 172.410156 C 275.789062 172.640625 276.109375 172.902344 276.398438 173.195312 C 276.691406 173.488281 276.953125 173.804688 277.183594 174.148438 C 277.414062 174.492188 277.609375 174.855469 277.765625 175.238281 C 277.925781 175.621094 278.042969 176.015625 278.125 176.421875 C 278.207031 176.824219 278.246094 177.234375 278.246094 177.648438 Z M 278.246094 240.65625 " fill-opacity="1" fill-rule="nonzero"/><g clip-path="url(#27f2421b74)"><path fill="#ffffff" d="M 19.917969 246.957031 C 19.925781 248.40625 20.1875 249.808594 20.710938 251.160156 C 20.800781 251.398438 20.878906 251.640625 20.9375 251.886719 C 21 252.132812 21.042969 252.382812 21.074219 252.632812 C 21.105469 252.886719 21.117188 253.136719 21.117188 253.390625 C 21.117188 253.644531 21.101562 253.898438 21.070312 254.152344 C 21.039062 254.402344 20.996094 254.652344 20.933594 254.898438 C 20.871094 255.144531 20.796875 255.386719 20.707031 255.625 C 20.617188 255.863281 20.511719 256.09375 20.394531 256.316406 C 20.273438 256.542969 20.144531 256.757812 20 256.96875 C 19.855469 257.175781 19.699219 257.375 19.53125 257.566406 C 19.359375 257.753906 19.183594 257.933594 18.992188 258.101562 C 18.800781 258.269531 18.601562 258.425781 18.394531 258.570312 C 18.183594 258.714844 17.964844 258.847656 17.742188 258.964844 C 17.515625 259.082031 17.285156 259.1875 17.046875 259.277344 C 16.8125 259.367188 16.570312 259.441406 16.320312 259.5 C 16.074219 259.5625 15.828125 259.609375 15.574219 259.636719 C 15.320312 259.667969 15.070312 259.683594 14.816406 259.683594 C 14.507812 259.683594 13.554688 259.59375 13.277344 259.550781 C 12.449219 259.5625 11.632812 259.65625 10.820312 259.828125 C 10.011719 260 9.226562 260.25 8.46875 260.574219 C 7.707031 260.902344 6.984375 261.300781 6.304688 261.769531 C 5.621094 262.238281 4.992188 262.769531 4.414062 263.363281 C 3.835938 263.957031 3.324219 264.601562 2.875 265.292969 C 2.421875 265.988281 2.042969 266.722656 1.738281 267.488281 C 1.429688 268.257812 1.203125 269.050781 1.050781 269.863281 C 0.902344 270.679688 0.832031 271.5 0.84375 272.324219 C 0.855469 273.152344 0.945312 273.972656 1.117188 274.78125 C 1.292969 275.589844 1.542969 276.375 1.867188 277.136719 C 2.195312 277.898438 2.59375 278.617188 3.0625 279.300781 C 3.53125 279.980469 4.0625 280.613281 4.65625 281.1875 C 5.25 281.765625 5.890625 282.28125 6.585938 282.730469 C 7.28125 283.179688 8.011719 283.558594 8.78125 283.867188 C 9.550781 284.171875 10.34375 284.402344 11.15625 284.550781 C 11.96875 284.703125 12.789062 284.773438 13.617188 284.761719 L 38.820312 284.761719 L 38.820312 236.09375 C 36.878906 234.941406 34.777344 234.363281 32.519531 234.355469 C 31.691406 234.355469 30.875 234.4375 30.0625 234.597656 C 29.25 234.757812 28.460938 234.996094 27.699219 235.3125 C 26.933594 235.632812 26.207031 236.019531 25.519531 236.480469 C 24.832031 236.9375 24.195312 237.460938 23.609375 238.046875 C 23.023438 238.632812 22.503906 239.269531 22.042969 239.957031 C 21.582031 240.644531 21.195312 241.371094 20.878906 242.132812 C 20.5625 242.898438 20.324219 243.6875 20.160156 244.5 C 20 245.308594 19.917969 246.128906 19.917969 246.957031 Z M 19.917969 246.957031 " fill-opacity="1" fill-rule="nonzero"/></g></svg>