<svg xmlns="http://www.w3.org/2000/svg" xmlns:xlink="http://www.w3.org/1999/xlink" width="500" zoomAndPan="magnify" viewBox="0 0 375 374.999991" height="500" preserveAspectRatio="xMidYMid meet" version="1.0"><defs><clipPath id="7249e07bd0"><path d="M 4 18 L 371 18 L 371 358.460938 L 4 358.460938 Z M 4 18 " clip-rule="nonzero"/></clipPath></defs><g clip-path="url(#7249e07bd0)"><path fill="#000000" d="M 233.300781 358.171875 C 204.832031 358.171875 176.363281 358.171875 147.890625 358.171875 C 137.980469 358.171875 137.675781 357.613281 142.363281 348.59375 C 144.945312 343.621094 147.566406 338.664062 149.992188 333.617188 C 151.886719 329.671875 154.675781 325.957031 151.863281 321.027344 C 150.710938 319.007812 152.4375 316.46875 153.457031 314.324219 C 159.179688 302.257812 166.015625 290.726562 170.75 278.191406 C 172.582031 273.367188 175.4375 273.734375 179.402344 275.734375 C 204.222656 288.28125 229.097656 300.730469 254.023438 313.082031 C 265.746094 318.886719 276.6875 317.003906 283.964844 308.324219 C 294.058594 296.28125 291.191406 279.691406 277.609375 271.78125 C 275.207031 270.328125 272.726562 269.03125 270.164062 267.886719 C 262.738281 264.714844 256.015625 261.640625 255.734375 251.503906 C 255.597656 246.617188 250.65625 243.292969 246.042969 240.984375 C 212.503906 224.210938 178.964844 207.433594 145.429688 190.65625 C 134.828125 185.359375 123.859375 188.703125 118.9375 198.617188 C 114.539062 207.433594 118.429688 217.390625 128.859375 222.644531 C 162.363281 239.527344 195.980469 256.183594 229.519531 272.996094 C 236.457031 276.476562 243.125 276.660156 249.699219 272.242188 C 251.332031 271.144531 253.117188 269.824219 255.066406 270.707031 C 262.894531 274.269531 271.085938 277.414062 277.464844 283.34375 C 281.652344 287.238281 281.789062 295.949219 278.625 300.855469 C 275.457031 305.761719 268.566406 308.507812 262.710938 306.859375 C 260.457031 306.222656 258.316406 305.117188 256.191406 304.0625 C 229.570312 290.777344 202.898438 277.597656 176.40625 264.046875 C 171.035156 261.300781 168.222656 261.621094 165.414062 267.34375 C 158.820312 280.890625 151.578125 294.128906 144.667969 307.523438 C 142.667969 311.402344 140.890625 315.164062 135.8125 316.046875 C 133.03125 316.535156 132.222656 319.5625 131.074219 321.84375 C 126.132812 331.664062 121.054688 341.421875 116.417969 351.378906 C 114.136719 356.269531 111.128906 358.40625 105.496094 358.289062 C 88.683594 357.941406 71.855469 358.207031 55.03125 358.152344 C 42.074219 358.109375 35.476562 351.699219 35.421875 338.664062 C 35.300781 305.90625 35.367188 273.144531 35.363281 240.386719 C 35.363281 225.082031 35.40625 209.777344 35.34375 194.476562 C 35.300781 184.15625 31.367188 179.667969 21.15625 177.953125 C 9.007812 175.917969 3.472656 169.582031 4.046875 158.523438 C 4.324219 153.136719 6.9375 149.230469 11.164062 146.097656 C 21.714844 138.253906 32.070312 130.136719 42.796875 122.535156 C 47.703125 119.054688 49.671875 115.074219 49.597656 109.023438 C 49.3125 85.320312 49.46875 61.609375 49.511719 37.902344 C 49.511719 29.074219 49.613281 28.992188 58.671875 28.972656 C 80.453125 28.929688 102.238281 29.085938 124.019531 28.851562 C 129.683594 28.789062 131.839844 30.832031 131.464844 36.402344 C 131.160156 40.90625 131.40625 45.449219 131.464844 49.976562 C 131.464844 51.222656 131.132812 52.796875 132.363281 53.550781 C 134.066406 54.59375 135.113281 52.898438 136.234375 52.058594 C 148.324219 43.03125 160.492188 34.117188 172.386719 24.851562 C 182.648438 16.863281 190.433594 16.523438 200.964844 24.382812 C 208.398438 29.921875 215.664062 35.695312 223.277344 40.972656 C 227.363281 43.804688 227.542969 46.375 225.390625 50.640625 C 205.199219 90.65625 185.328125 130.828125 165.023438 170.792969 C 162.003906 176.734375 163.050781 179.214844 168.847656 182.019531 C 192.328125 193.394531 215.640625 205.117188 238.871094 216.980469 C 243.632812 219.410156 245.933594 218.722656 248.316406 213.894531 C 265.660156 178.714844 283.3125 143.691406 300.675781 108.523438 C 303.242188 103.300781 305.53125 102.492188 310.332031 106.203125 C 327.550781 119.523438 345.023438 132.507812 362.414062 145.601562 C 368.644531 150.289062 371.734375 156.21875 369.820312 164.121094 C 367.855469 172.246094 362.367188 176.203125 354.378906 177.6875 C 341.25 180.132812 338.332031 183.847656 338.328125 197.386719 C 338.316406 243.9375 338.316406 290.492188 338.328125 337.046875 C 338.328125 352.535156 332.773438 358.167969 317.402344 358.171875 C 289.371094 358.183594 261.335938 358.183594 233.300781 358.171875 Z M 233.300781 358.171875 " fill-opacity="1" fill-rule="nonzero"/></g></svg>