<svg xmlns="http://www.w3.org/2000/svg" xmlns:xlink="http://www.w3.org/1999/xlink" width="475" zoomAndPan="magnify" viewBox="0 0 356.25 286.5" height="382" preserveAspectRatio="xMidYMid meet" version="1.0"><defs><clipPath id="083f900a62"><path d="M 29 1 L 336 1 L 336 285.160156 L 29 285.160156 Z M 29 1 " clip-rule="nonzero"/></clipPath></defs><g clip-path="url(#083f900a62)"><path fill="#ffffff" d="M 220.644531 284.988281 C 196.855469 284.988281 173.070312 284.988281 149.277344 284.988281 C 140.996094 284.988281 140.742188 284.519531 144.660156 276.980469 C 146.816406 272.820312 149.007812 268.675781 151.03125 264.453125 C 152.617188 261.15625 154.949219 258.050781 152.597656 253.929688 C 151.632812 252.238281 153.078125 250.117188 153.929688 248.324219 C 158.710938 238.234375 164.425781 228.59375 168.378906 218.113281 C 169.910156 214.078125 172.292969 214.382812 175.605469 216.058594 C 196.351562 226.550781 217.132812 236.957031 237.960938 247.285156 C 247.757812 252.136719 256.898438 250.566406 262.980469 243.304688 C 271.414062 233.238281 269.019531 219.363281 257.667969 212.753906 C 255.664062 211.539062 253.589844 210.453125 251.449219 209.496094 C 245.242188 206.84375 239.625 204.273438 239.390625 195.796875 C 239.277344 191.710938 235.148438 188.929688 231.292969 187.003906 C 203.269531 172.976562 175.242188 158.949219 147.222656 144.917969 C 138.363281 140.492188 129.199219 143.289062 125.085938 151.574219 C 121.410156 158.945312 124.660156 167.273438 133.375 171.667969 C 161.371094 185.785156 189.460938 199.710938 217.484375 213.769531 C 223.285156 216.675781 228.855469 216.832031 234.347656 213.136719 C 235.714844 212.21875 237.203125 211.113281 238.832031 211.855469 C 245.375 214.835938 252.21875 217.460938 257.550781 222.421875 C 261.050781 225.675781 261.164062 232.960938 258.519531 237.0625 C 255.871094 241.164062 250.113281 243.460938 245.222656 242.082031 C 243.335938 241.546875 241.546875 240.625 239.773438 239.742188 C 217.527344 228.636719 195.242188 217.613281 173.105469 206.285156 C 168.617188 203.992188 166.265625 204.257812 163.921875 209.042969 C 158.410156 220.371094 152.359375 231.4375 146.585938 242.636719 C 144.914062 245.878906 143.429688 249.023438 139.183594 249.765625 C 136.863281 250.171875 136.183594 252.703125 135.226562 254.613281 C 131.097656 262.824219 126.855469 270.980469 122.980469 279.304688 C 121.074219 283.394531 118.558594 285.183594 113.855469 285.085938 C 99.804688 284.792969 85.746094 285.015625 71.6875 284.96875 C 60.859375 284.933594 55.34375 279.574219 55.300781 268.675781 C 55.195312 241.285156 55.253906 213.890625 55.25 186.5 C 55.25 173.707031 55.285156 160.910156 55.234375 148.117188 C 55.195312 139.484375 51.910156 135.730469 43.378906 134.300781 C 33.226562 132.597656 28.601562 127.300781 29.082031 118.050781 C 29.316406 113.546875 31.5 110.28125 35.03125 107.664062 C 43.84375 101.105469 52.5 94.316406 61.460938 87.960938 C 65.558594 85.050781 67.207031 81.722656 67.144531 76.664062 C 66.90625 56.84375 67.035156 37.019531 67.074219 17.195312 C 67.074219 9.8125 67.15625 9.746094 74.726562 9.730469 C 92.925781 9.695312 111.128906 9.828125 129.332031 9.628906 C 134.0625 9.578125 135.867188 11.285156 135.550781 15.941406 C 135.296875 19.707031 135.503906 23.507812 135.550781 27.292969 C 135.550781 28.335938 135.277344 29.648438 136.304688 30.28125 C 137.726562 31.152344 138.601562 29.734375 139.539062 29.035156 C 149.640625 21.484375 159.808594 14.03125 169.746094 6.285156 C 178.320312 -0.394531 184.824219 -0.679688 193.628906 5.890625 C 199.839844 10.523438 205.910156 15.351562 212.269531 19.765625 C 215.683594 22.128906 215.835938 24.28125 214.039062 27.847656 C 197.164062 61.304688 180.5625 94.894531 163.59375 128.3125 C 161.070312 133.28125 161.945312 135.351562 166.789062 137.699219 C 186.410156 147.210938 205.886719 157.011719 225.300781 166.929688 C 229.28125 168.960938 231.203125 168.386719 233.195312 164.351562 C 247.6875 134.9375 262.4375 105.648438 276.945312 76.246094 C 279.089844 71.878906 281 71.203125 285.011719 74.308594 C 299.402344 85.445312 314 96.300781 328.535156 107.25 C 333.738281 111.167969 336.320312 116.125 334.722656 122.734375 C 333.078125 129.527344 328.492188 132.835938 321.820312 134.074219 C 310.847656 136.121094 308.410156 139.226562 308.40625 150.546875 C 308.394531 189.472656 308.394531 228.398438 308.40625 267.324219 C 308.40625 280.273438 303.765625 284.984375 290.921875 284.988281 C 267.5 284.996094 244.074219 284.996094 220.644531 284.988281 Z M 220.644531 284.988281 " fill-opacity="1" fill-rule="nonzero"/></g></svg>